<svg width="592" height="127" viewBox="0 0 592 127" fill="none" xmlns="http://www.w3.org/2000/svg">
<path d="M15.3239 88H13.9886C13.8892 87.5028 13.7093 87.0436 13.4489 86.6222C13.1932 86.196 12.8712 85.8243 12.483 85.5071C12.0947 85.1899 11.6544 84.9437 11.1619 84.7685C10.6695 84.5933 10.1368 84.5057 9.56392 84.5057C8.64536 84.5057 7.80729 84.7448 7.04972 85.223C6.29688 85.7012 5.69318 86.4044 5.23864 87.3324C4.78883 88.2557 4.56392 89.3873 4.56392 90.7273C4.56392 92.0767 4.78883 93.2131 5.23864 94.1364C5.69318 95.0597 6.29688 95.7604 7.04972 96.2386C7.80729 96.7121 8.64536 96.9489 9.56392 96.9489C10.1368 96.9489 10.6695 96.8613 11.1619 96.6861C11.6544 96.5109 12.0947 96.267 12.483 95.9545C12.8712 95.6373 13.1932 95.2656 13.4489 94.8395C13.7093 94.4134 13.8892 93.9517 13.9886 93.4545H15.3239C15.2055 94.1222 14.983 94.7448 14.6562 95.3224C14.3343 95.8954 13.9223 96.3973 13.4205 96.8281C12.9233 97.259 12.3504 97.5952 11.7017 97.8366C11.053 98.0781 10.3404 98.1989 9.56392 98.1989C8.34233 98.1989 7.25805 97.8935 6.31108 97.2827C5.36411 96.6671 4.62074 95.8007 4.08097 94.6832C3.54593 93.5658 3.27841 92.2472 3.27841 90.7273C3.27841 89.2074 3.54593 87.8887 4.08097 86.7713C4.62074 85.6539 5.36411 84.7898 6.31108 84.179C7.25805 83.5634 8.34233 83.2557 9.56392 83.2557C10.3404 83.2557 11.053 83.3764 11.7017 83.6179C12.3504 83.8546 12.9233 84.1908 13.4205 84.6264C13.9223 85.0573 14.3343 85.5592 14.6562 86.1321C14.983 86.705 15.2055 87.3277 15.3239 88ZM19.445 96.2031L25.2049 87.0909H26.7177V98H25.4535V88.8878L19.7148 98H18.1808V87.0909H19.445V96.2031ZM34.3171 98.2273C33.3417 98.2273 32.4918 97.9834 31.7674 97.4957C31.0477 97.008 30.489 96.3404 30.0913 95.4929C29.6935 94.6454 29.4947 93.6795 29.4947 92.5952C29.4947 91.5014 29.6959 90.5284 30.0984 89.6761C30.5056 88.8239 31.069 88.1562 31.7887 87.6733C32.5084 87.1856 33.3441 86.9418 34.2958 86.9418C35.025 86.9418 35.6855 87.0838 36.2773 87.3679C36.8692 87.6473 37.3569 88.0426 37.7404 88.554C38.1287 89.0606 38.3725 89.6525 38.4719 90.3295H37.1935C37.061 89.714 36.7414 89.1884 36.2347 88.7528C35.7328 88.3125 35.0936 88.0923 34.3171 88.0923C33.6211 88.0923 33.0056 88.2817 32.4705 88.6605C31.9355 89.0346 31.5165 89.5578 31.2134 90.2301C30.9151 90.8977 30.766 91.6719 30.766 92.5526C30.766 93.438 30.9128 94.2216 31.2063 94.9034C31.4999 95.5805 31.9118 96.1108 32.4421 96.4943C32.9772 96.8778 33.6022 97.0696 34.3171 97.0696C34.8001 97.0696 35.2404 96.9796 35.6381 96.7997C36.0406 96.6151 36.3768 96.3546 36.6467 96.0185C36.9213 95.6823 37.1059 95.2822 37.2006 94.8182H38.479C38.3844 95.4763 38.15 96.0634 37.7759 96.5795C37.4066 97.0909 36.926 97.4934 36.3342 97.7869C35.747 98.0805 35.0747 98.2273 34.3171 98.2273ZM40.2866 88.2841V87.0909H48.8093V88.2841H45.2013V98H43.9371V88.2841H40.2866ZM55.3256 98.2273C54.3076 98.2273 53.427 97.9905 52.6836 97.517C51.9402 97.0388 51.3649 96.3783 50.9577 95.5355C50.5553 94.688 50.354 93.7126 50.354 92.6094C50.354 91.5109 50.5553 90.5355 50.9577 89.6832C51.3649 88.8262 51.926 88.1562 52.641 87.6733C53.3607 87.1856 54.1916 86.9418 55.1339 86.9418C55.7257 86.9418 56.2963 87.0507 56.8455 87.2685C57.3948 87.4815 57.8872 87.8106 58.3228 88.2557C58.7631 88.696 59.1112 89.2524 59.3668 89.9247C59.6225 90.5923 59.7504 91.383 59.7504 92.2969V92.9219H51.2276V91.8068H58.4577C58.4577 91.1061 58.3157 90.4763 58.0316 89.9176C57.7522 89.3542 57.3616 88.9091 56.8597 88.5824C56.3626 88.2557 55.7873 88.0923 55.1339 88.0923C54.4426 88.0923 53.8342 88.277 53.3086 88.6463C52.783 89.0156 52.3711 89.5033 52.0728 90.1094C51.7792 90.7154 51.6301 91.3783 51.6254 92.098V92.7656C51.6254 93.6321 51.7745 94.3897 52.0728 95.0384C52.3758 95.6823 52.8043 96.1818 53.3583 96.5369C53.9123 96.892 54.5681 97.0696 55.3256 97.0696C55.8417 97.0696 56.2939 96.9891 56.6822 96.8281C57.0752 96.6671 57.4042 96.4517 57.6694 96.1818C57.9393 95.9072 58.1429 95.6065 58.2802 95.2798L59.4805 95.6705C59.3147 96.1297 59.0425 96.5535 58.6637 96.9418C58.2897 97.33 57.8209 97.6425 57.2575 97.8793C56.6987 98.1113 56.0548 98.2273 55.3256 98.2273ZM68.2393 96.2315L72.3374 87.0909H73.5661L68.7436 98H67.7351L62.9695 87.0909H64.1768L68.2393 96.2315ZM63.8004 87.0909V98H62.5362V87.0909H63.8004ZM72.6783 98V87.0909H73.9425V98H72.6783ZM80.3487 98.2486C79.6906 98.2486 79.0893 98.1207 78.5447 97.8651C78.0002 97.6046 77.567 97.2306 77.245 96.7429C76.9231 96.2505 76.7621 95.6539 76.7621 94.9531C76.7621 94.4134 76.8639 93.9588 77.0675 93.5895C77.2711 93.2202 77.5599 92.9171 77.9339 92.6804C78.308 92.4437 78.7507 92.2566 79.2621 92.1193C79.7734 91.982 80.3369 91.8755 80.9524 91.7997C81.5632 91.724 82.0793 91.6577 82.5007 91.6009C82.9268 91.544 83.2512 91.4541 83.4737 91.331C83.6963 91.2079 83.8075 91.009 83.8075 90.7344V90.4787C83.8075 89.7353 83.585 89.1506 83.1399 88.7244C82.6996 88.2936 82.0651 88.0781 81.2365 88.0781C80.4505 88.0781 79.8089 88.2509 79.3118 88.5966C78.8194 88.9422 78.4737 89.3494 78.2749 89.8182L77.0746 89.3849C77.3208 88.7884 77.6617 88.3125 78.0973 87.9574C78.5329 87.5975 79.0206 87.3395 79.5604 87.1832C80.1001 87.0223 80.647 86.9418 81.201 86.9418C81.6177 86.9418 82.0509 86.9962 82.5007 87.1051C82.9553 87.214 83.3767 87.4034 83.7649 87.6733C84.1532 87.9384 84.468 88.3101 84.7095 88.7884C84.951 89.2618 85.0717 89.8632 85.0717 90.5923V98H83.8075V96.2741H83.7294C83.5779 96.5961 83.353 96.9086 83.0547 97.2116C82.7564 97.5147 82.3823 97.7633 81.9325 97.9574C81.4827 98.1515 80.9548 98.2486 80.3487 98.2486ZM80.5192 97.0909C81.1915 97.0909 81.7739 96.9418 82.2663 96.6435C82.7588 96.3452 83.1375 95.9498 83.4027 95.4574C83.6726 94.9602 83.8075 94.4134 83.8075 93.8168V92.2401C83.7128 92.33 83.5542 92.4105 83.3317 92.4815C83.1139 92.5526 82.8606 92.6165 82.5717 92.6733C82.2876 92.7254 82.0036 92.7704 81.7195 92.8082C81.4354 92.8461 81.1797 92.8793 80.9524 92.9077C80.3369 92.9834 79.8113 93.1018 79.3757 93.2628C78.9401 93.4238 78.6063 93.6463 78.3743 93.9304C78.1423 94.2098 78.0263 94.5696 78.0263 95.0099C78.0263 95.6728 78.263 96.1866 78.7365 96.5511C79.21 96.911 79.8042 97.0909 80.5192 97.0909ZM94.0739 98V87.0909H102.334V98H101.062V88.2841H95.3452V98H94.0739ZM109.921 98.2273C108.979 98.2273 108.145 97.9882 107.421 97.5099C106.701 97.0317 106.138 96.3712 105.73 95.5284C105.323 94.6809 105.12 93.7031 105.12 92.5952C105.12 91.4777 105.323 90.4953 105.73 89.6477C106.138 88.7955 106.701 88.1326 107.421 87.6591C108.145 87.1809 108.979 86.9418 109.921 86.9418C110.863 86.9418 111.694 87.1809 112.414 87.6591C113.133 88.1373 113.697 88.8002 114.104 89.6477C114.516 90.4953 114.722 91.4777 114.722 92.5952C114.722 93.7031 114.518 94.6809 114.111 95.5284C113.704 96.3712 113.138 97.0317 112.414 97.5099C111.694 97.9882 110.863 98.2273 109.921 98.2273ZM109.921 97.0696C110.678 97.0696 111.32 96.866 111.846 96.4588C112.371 96.0516 112.769 95.5095 113.039 94.8324C113.313 94.1553 113.451 93.4096 113.451 92.5952C113.451 91.7808 113.313 91.0327 113.039 90.3509C112.769 89.669 112.371 89.1222 111.846 88.7102C111.32 88.2983 110.678 88.0923 109.921 88.0923C109.168 88.0923 108.526 88.2983 107.996 88.7102C107.471 89.1222 107.07 89.669 106.796 90.3509C106.526 91.0327 106.391 91.7808 106.391 92.5952C106.391 93.4096 106.526 94.1553 106.796 94.8324C107.07 95.5095 107.471 96.0516 107.996 96.4588C108.522 96.866 109.163 97.0696 109.921 97.0696ZM123.136 98V87.0909H131.396V98H130.125V88.2841H124.408V98H123.136ZM138.983 98.2273C138.041 98.2273 137.208 97.9882 136.483 97.5099C135.764 97.0317 135.2 96.3712 134.793 95.5284C134.386 94.6809 134.182 93.7031 134.182 92.5952C134.182 91.4777 134.386 90.4953 134.793 89.6477C135.2 88.7955 135.764 88.1326 136.483 87.6591C137.208 87.1809 138.041 86.9418 138.983 86.9418C139.926 86.9418 140.757 87.1809 141.476 87.6591C142.196 88.1373 142.759 88.8002 143.167 89.6477C143.578 90.4953 143.784 91.4777 143.784 92.5952C143.784 93.7031 143.581 94.6809 143.174 95.5284C142.766 96.3712 142.201 97.0317 141.476 97.5099C140.757 97.9882 139.926 98.2273 138.983 98.2273ZM138.983 97.0696C139.741 97.0696 140.382 96.866 140.908 96.4588C141.434 96.0516 141.831 95.5095 142.101 94.8324C142.376 94.1553 142.513 93.4096 142.513 92.5952C142.513 91.7808 142.376 91.0327 142.101 90.3509C141.831 89.669 141.434 89.1222 140.908 88.7102C140.382 88.2983 139.741 88.0923 138.983 88.0923C138.23 88.0923 137.589 88.2983 137.059 88.7102C136.533 89.1222 136.133 89.669 135.858 90.3509C135.588 91.0327 135.453 91.7808 135.453 92.5952C135.453 93.4096 135.588 94.1553 135.858 94.8324C136.133 95.5095 136.533 96.0516 137.059 96.4588C137.584 96.866 138.226 97.0696 138.983 97.0696ZM145.267 101.104V96.8068H146.212C146.448 96.5417 146.654 96.2552 146.83 95.9474C147.005 95.6397 147.156 95.2893 147.284 94.8963C147.417 94.4986 147.528 94.0369 147.618 93.5114C147.708 92.9811 147.784 92.3632 147.845 91.6577L148.243 87.0909H154.699V96.8068H156.318V101.104H155.054V98H146.538V101.104H145.267ZM147.668 96.8068H153.435V88.2841H149.422L149.095 91.6577C148.982 92.8035 148.821 93.8026 148.612 94.6548C148.404 95.5071 148.089 96.2244 147.668 96.8068ZM165.212 87.0909V88.2841H159.992V98H158.728V87.0909H165.212ZM171.542 98.2273C170.6 98.2273 169.766 97.9882 169.042 97.5099C168.322 97.0317 167.759 96.3712 167.352 95.5284C166.944 94.6809 166.741 93.7031 166.741 92.5952C166.741 91.4777 166.944 90.4953 167.352 89.6477C167.759 88.7955 168.322 88.1326 169.042 87.6591C169.766 87.1809 170.6 86.9418 171.542 86.9418C172.484 86.9418 173.315 87.1809 174.035 87.6591C174.754 88.1373 175.318 88.8002 175.725 89.6477C176.137 90.4953 176.343 91.4777 176.343 92.5952C176.343 93.7031 176.139 94.6809 175.732 95.5284C175.325 96.3712 174.759 97.0317 174.035 97.5099C173.315 97.9882 172.484 98.2273 171.542 98.2273ZM171.542 97.0696C172.299 97.0696 172.941 96.866 173.467 96.4588C173.992 96.0516 174.39 95.5095 174.66 94.8324C174.934 94.1553 175.072 93.4096 175.072 92.5952C175.072 91.7808 174.934 91.0327 174.66 90.3509C174.39 89.669 173.992 89.1222 173.467 88.7102C172.941 88.2983 172.299 88.0923 171.542 88.0923C170.789 88.0923 170.147 88.2983 169.617 88.7102C169.092 89.1222 168.692 89.669 168.417 90.3509C168.147 91.0327 168.012 91.7808 168.012 92.5952C168.012 93.4096 168.147 94.1553 168.417 94.8324C168.692 95.5095 169.092 96.0516 169.617 96.4588C170.143 96.866 170.784 97.0696 171.542 97.0696ZM177.65 88.2841V87.0909H186.173V88.2841H182.565V98H181.3V88.2841H177.65ZM192.518 98.2273C191.576 98.2273 190.743 97.9882 190.018 97.5099C189.299 97.0317 188.735 96.3712 188.328 95.5284C187.921 94.6809 187.717 93.7031 187.717 92.5952C187.717 91.4777 187.921 90.4953 188.328 89.6477C188.735 88.7955 189.299 88.1326 190.018 87.6591C190.743 87.1809 191.576 86.9418 192.518 86.9418C193.461 86.9418 194.292 87.1809 195.011 87.6591C195.731 88.1373 196.295 88.8002 196.702 89.6477C197.114 90.4953 197.32 91.4777 197.32 92.5952C197.32 93.7031 197.116 94.6809 196.709 95.5284C196.302 96.3712 195.736 97.0317 195.011 97.5099C194.292 97.9882 193.461 98.2273 192.518 98.2273ZM192.518 97.0696C193.276 97.0696 193.918 96.866 194.443 96.4588C194.969 96.0516 195.366 95.5095 195.636 94.8324C195.911 94.1553 196.048 93.4096 196.048 92.5952C196.048 91.7808 195.911 91.0327 195.636 90.3509C195.366 89.669 194.969 89.1222 194.443 88.7102C193.918 88.2983 193.276 88.0923 192.518 88.0923C191.766 88.0923 191.124 88.2983 190.594 88.7102C190.068 89.1222 189.668 89.669 189.393 90.3509C189.124 91.0327 188.989 91.7808 188.989 92.5952C188.989 93.4096 189.124 94.1553 189.393 94.8324C189.668 95.5095 190.068 96.0516 190.594 96.4588C191.119 96.866 191.761 97.0696 192.518 97.0696ZM200.095 98V87.0909H204.392C205.552 87.0909 206.466 87.3419 207.133 87.8438C207.806 88.3456 208.142 89.0227 208.142 89.875C208.142 90.5237 207.955 91.0421 207.581 91.4304C207.207 91.8187 206.705 92.0933 206.075 92.2543C206.496 92.3253 206.887 92.4792 207.247 92.7159C207.611 92.9527 207.907 93.2652 208.135 93.6534C208.362 94.0417 208.475 94.5057 208.475 95.0455C208.475 95.6136 208.333 96.1203 208.049 96.5653C207.765 97.0104 207.365 97.3608 206.849 97.6165C206.333 97.8722 205.722 98 205.017 98H200.095ZM201.302 96.8281H205.017C205.684 96.8281 206.212 96.6577 206.6 96.3168C206.989 95.9711 207.183 95.5118 207.183 94.9389C207.183 94.3281 206.998 93.8404 206.629 93.4759C206.264 93.1065 205.774 92.9219 205.159 92.9219H201.302V96.8281ZM201.302 91.7997H204.47C204.962 91.7997 205.388 91.724 205.748 91.5724C206.108 91.4209 206.385 91.2079 206.579 90.9332C206.778 90.6539 206.875 90.3272 206.87 89.9531C206.87 89.4181 206.653 89.0038 206.217 88.7102C205.781 88.4119 205.173 88.2628 204.392 88.2628H201.302V91.7997ZM211.247 98V87.0909H212.511V91.9986H213.697L217.753 87.0909H219.386L215.011 92.3395L219.486 98H217.852L214.088 93.1918H212.511V98H211.247ZM225.521 98.2273C224.503 98.2273 223.622 97.9905 222.879 97.517C222.136 97.0388 221.56 96.3783 221.153 95.5355C220.751 94.688 220.549 93.7126 220.549 92.6094C220.549 91.5109 220.751 90.5355 221.153 89.6832C221.56 88.8262 222.121 88.1562 222.836 87.6733C223.556 87.1856 224.387 86.9418 225.329 86.9418C225.921 86.9418 226.492 87.0507 227.041 87.2685C227.59 87.4815 228.083 87.8106 228.518 88.2557C228.958 88.696 229.306 89.2524 229.562 89.9247C229.818 90.5923 229.946 91.383 229.946 92.2969V92.9219H221.423V91.8068H228.653C228.653 91.1061 228.511 90.4763 228.227 89.9176C227.948 89.3542 227.557 88.9091 227.055 88.5824C226.558 88.2557 225.983 88.0923 225.329 88.0923C224.638 88.0923 224.029 88.277 223.504 88.6463C222.978 89.0156 222.566 89.5033 222.268 90.1094C221.975 90.7154 221.825 91.3783 221.821 92.098V92.7656C221.821 93.6321 221.97 94.3897 222.268 95.0384C222.571 95.6823 223 96.1818 223.554 96.5369C224.108 96.892 224.763 97.0696 225.521 97.0696C226.037 97.0696 226.489 96.9891 226.877 96.8281C227.27 96.6671 227.6 96.4517 227.865 96.1818C228.135 95.9072 228.338 95.6065 228.475 95.2798L229.676 95.6705C229.51 96.1297 229.238 96.5535 228.859 96.9418C228.485 97.33 228.016 97.6425 227.453 97.8793C226.894 98.1113 226.25 98.2273 225.521 98.2273ZM238.357 98V87.0909H239.621V91.9986H240.807L244.862 87.0909H246.496L242.121 92.3395L246.595 98H244.962L241.197 93.1918H239.621V98H238.357ZM257.732 88.1491C257.282 88.1539 256.846 88.2628 256.425 88.4759C256.003 88.6889 255.658 88.9706 255.388 89.321C255.118 89.6714 254.983 90.0549 254.983 90.4716H253.733C253.733 90.0076 253.842 89.5649 254.06 89.1435C254.282 88.7221 254.58 88.348 254.955 88.0213C255.329 87.6899 255.755 87.4295 256.233 87.2401C256.716 87.0507 257.215 86.956 257.732 86.956C258.669 86.956 259.476 87.2045 260.153 87.7017C260.83 88.1989 261.349 88.857 261.709 89.6761C262.073 90.4953 262.256 91.3925 262.256 92.3679V92.7656C262.256 93.7363 262.073 94.6359 261.709 95.4645C261.344 96.2884 260.823 96.9512 260.146 97.4531C259.469 97.9503 258.664 98.1989 257.732 98.1989C256.979 98.1989 256.299 98.0284 255.693 97.6875C255.092 97.3466 254.614 96.8897 254.259 96.3168C253.908 95.7391 253.733 95.0999 253.733 94.3991H254.983C254.983 94.8584 255.111 95.2869 255.366 95.6847C255.627 96.0777 255.965 96.3949 256.382 96.6364C256.799 96.8778 257.249 97.0009 257.732 97.0057C258.39 97.0009 258.963 96.795 259.45 96.3878C259.943 95.9759 260.321 95.4479 260.587 94.804C260.852 94.1553 260.984 93.4759 260.984 92.7656V92.3679C260.984 91.6482 260.852 90.9687 260.587 90.3295C260.326 89.6856 259.952 89.1624 259.464 88.7599C258.977 88.3575 258.399 88.1539 257.732 88.1491ZM261.51 91.9205V93.1136H256.524V91.9205H261.51ZM265.036 98V87.0909H266.3V91.9986H267.487L271.542 87.0909H273.175L268.8 92.3395L273.275 98H271.641L267.877 93.1918H266.3V98H265.036ZM274.646 95.2159H275.988C276.026 95.7983 276.277 96.2528 276.741 96.5795C277.205 96.9062 277.816 97.0696 278.573 97.0696C279.359 97.0696 280.008 96.8944 280.519 96.544C281.031 96.1889 281.286 95.6728 281.286 94.9957C281.286 94.5838 281.189 94.2263 280.995 93.9233C280.806 93.6203 280.545 93.3835 280.214 93.2131C279.887 93.0379 279.515 92.9479 279.099 92.9432H277.195V91.7855H279.077C279.726 91.7476 280.219 91.5724 280.555 91.2599C280.891 90.9427 281.059 90.5284 281.059 90.017C281.059 89.4347 280.853 88.9683 280.441 88.6179C280.029 88.2628 279.47 88.0852 278.765 88.0852C278.05 88.0852 277.456 88.2604 276.982 88.6108C276.509 88.9612 276.258 89.411 276.229 89.9602H274.901C274.925 89.3684 275.103 88.8475 275.434 88.3977C275.765 87.9432 276.213 87.5881 276.776 87.3324C277.344 87.0767 277.988 86.9489 278.708 86.9489C279.447 86.9489 280.088 87.0814 280.633 87.3466C281.177 87.6117 281.599 87.974 281.897 88.4332C282.195 88.8878 282.344 89.4039 282.344 89.9815C282.344 90.5829 282.179 91.0777 281.847 91.4659C281.521 91.8494 281.102 92.1193 280.59 92.2756V92.3821C280.978 92.4247 281.319 92.5668 281.613 92.8082C281.911 93.0497 282.146 93.3598 282.316 93.7386C282.487 94.1174 282.572 94.5365 282.572 94.9957C282.572 95.6397 282.404 96.2055 282.067 96.6932C281.731 97.1761 281.263 97.5526 280.661 97.8224C280.065 98.0923 279.376 98.2273 278.594 98.2273C277.842 98.2273 277.172 98.1018 276.585 97.8509C275.997 97.5952 275.531 97.2424 275.185 96.7926C274.844 96.3381 274.665 95.8125 274.646 95.2159ZM288.22 98.2486C287.562 98.2486 286.96 98.1207 286.416 97.8651C285.871 97.6046 285.438 97.2306 285.116 96.7429C284.794 96.2505 284.633 95.6539 284.633 94.9531C284.633 94.4134 284.735 93.9588 284.939 93.5895C285.142 93.2202 285.431 92.9171 285.805 92.6804C286.179 92.4437 286.622 92.2566 287.133 92.1193C287.645 91.982 288.208 91.8755 288.824 91.7997C289.434 91.724 289.95 91.6577 290.372 91.6009C290.798 91.544 291.122 91.4541 291.345 91.331C291.567 91.2079 291.679 91.009 291.679 90.7344V90.4787C291.679 89.7353 291.456 89.1506 291.011 88.7244C290.571 88.2936 289.936 88.0781 289.108 88.0781C288.322 88.0781 287.68 88.2509 287.183 88.5966C286.69 88.9422 286.345 89.3494 286.146 89.8182L284.946 89.3849C285.192 88.7884 285.533 88.3125 285.968 87.9574C286.404 87.5975 286.892 87.3395 287.431 87.1832C287.971 87.0223 288.518 86.9418 289.072 86.9418C289.489 86.9418 289.922 86.9962 290.372 87.1051C290.826 87.214 291.248 87.4034 291.636 87.6733C292.024 87.9384 292.339 88.3101 292.581 88.7884C292.822 89.2618 292.943 89.8632 292.943 90.5923V98H291.679V96.2741H291.6C291.449 96.5961 291.224 96.9086 290.926 97.2116C290.627 97.5147 290.253 97.7633 289.804 97.9574C289.354 98.1515 288.826 98.2486 288.22 98.2486ZM288.39 97.0909C289.063 97.0909 289.645 96.9418 290.137 96.6435C290.63 96.3452 291.009 95.9498 291.274 95.4574C291.544 94.9602 291.679 94.4134 291.679 93.8168V92.2401C291.584 92.33 291.425 92.4105 291.203 92.4815C290.985 92.5526 290.732 92.6165 290.443 92.6733C290.159 92.7254 289.875 92.7704 289.591 92.8082C289.306 92.8461 289.051 92.8793 288.824 92.9077C288.208 92.9834 287.682 93.1018 287.247 93.2628C286.811 93.4238 286.477 93.6463 286.245 93.9304C286.013 94.2098 285.897 94.5696 285.897 95.0099C285.897 95.6728 286.134 96.1866 286.608 96.5511C287.081 96.911 287.675 97.0909 288.39 97.0909ZM302.009 96.2315L306.107 87.0909H307.336L302.513 98H301.505L296.739 87.0909H297.946L302.009 96.2315ZM297.57 87.0909V98H296.306V87.0909H297.57ZM306.448 98V87.0909H307.712V98H306.448ZM315.482 98.2273C314.464 98.2273 313.583 97.9905 312.84 97.517C312.096 97.0388 311.521 96.3783 311.114 95.5355C310.712 94.688 310.51 93.7126 310.51 92.6094C310.51 91.5109 310.712 90.5355 311.114 89.6832C311.521 88.8262 312.082 88.1562 312.797 87.6733C313.517 87.1856 314.348 86.9418 315.29 86.9418C315.882 86.9418 316.453 87.0507 317.002 87.2685C317.551 87.4815 318.043 87.8106 318.479 88.2557C318.919 88.696 319.267 89.2524 319.523 89.9247C319.779 90.5923 319.907 91.383 319.907 92.2969V92.9219H311.384V91.8068H318.614C318.614 91.1061 318.472 90.4763 318.188 89.9176C317.908 89.3542 317.518 88.9091 317.016 88.5824C316.519 88.2557 315.944 88.0923 315.29 88.0923C314.599 88.0923 313.99 88.277 313.465 88.6463C312.939 89.0156 312.527 89.5033 312.229 90.1094C311.935 90.7154 311.786 91.3783 311.782 92.098V92.7656C311.782 93.6321 311.931 94.3897 312.229 95.0384C312.532 95.6823 312.961 96.1818 313.515 96.5369C314.069 96.892 314.724 97.0696 315.482 97.0696C315.998 97.0696 316.45 96.9891 316.838 96.8281C317.231 96.6671 317.56 96.4517 317.826 96.1818C318.096 95.9072 318.299 95.6065 318.436 95.2798L319.637 95.6705C319.471 96.1297 319.199 96.5535 318.82 96.9418C318.446 97.33 317.977 97.6425 317.414 97.8793C316.855 98.1113 316.211 98.2273 315.482 98.2273ZM330.058 91.956V93.1491H323.644V91.956H330.058ZM323.957 87.0909V98H322.692V87.0909H323.957ZM330.988 87.0909V98H329.724V87.0909H330.988ZM334.843 102.091C334.592 102.091 334.357 102.067 334.14 102.02C333.922 101.973 333.749 101.92 333.621 101.864L333.962 100.749C334.393 100.881 334.776 100.929 335.113 100.891C335.449 100.857 335.747 100.706 336.007 100.436C336.268 100.171 336.5 99.7637 336.703 99.2145L337.101 98.1065L333.088 87.0909H334.459L337.698 96.331H337.797L341.036 87.0909H342.407L337.79 99.7259C337.596 100.251 337.357 100.689 337.073 101.04C336.789 101.395 336.46 101.658 336.086 101.828C335.716 102.003 335.302 102.091 334.843 102.091ZM350.519 98V87.0909H358.779V98H357.508V88.2841H351.79V98H350.519ZM366.366 98.2273C365.424 98.2273 364.591 97.9882 363.866 97.5099C363.146 97.0317 362.583 96.3712 362.176 95.5284C361.769 94.6809 361.565 93.7031 361.565 92.5952C361.565 91.4777 361.769 90.4953 362.176 89.6477C362.583 88.7955 363.146 88.1326 363.866 87.6591C364.591 87.1809 365.424 86.9418 366.366 86.9418C367.308 86.9418 368.139 87.1809 368.859 87.6591C369.579 88.1373 370.142 88.8002 370.549 89.6477C370.961 90.4953 371.167 91.4777 371.167 92.5952C371.167 93.7031 370.964 94.6809 370.556 95.5284C370.149 96.3712 369.583 97.0317 368.859 97.5099C368.139 97.9882 367.308 98.2273 366.366 98.2273ZM366.366 97.0696C367.124 97.0696 367.765 96.866 368.291 96.4588C368.816 96.0516 369.214 95.5095 369.484 94.8324C369.759 94.1553 369.896 93.4096 369.896 92.5952C369.896 91.7808 369.759 91.0327 369.484 90.3509C369.214 89.669 368.816 89.1222 368.291 88.7102C367.765 88.2983 367.124 88.0923 366.366 88.0923C365.613 88.0923 364.972 88.2983 364.441 88.7102C363.916 89.1222 363.516 89.669 363.241 90.3509C362.971 91.0327 362.836 91.7808 362.836 92.5952C362.836 93.4096 362.971 94.1553 363.241 94.8324C363.516 95.5095 363.916 96.0516 364.441 96.4588C364.967 96.866 365.609 97.0696 366.366 97.0696ZM383.808 98.2273C382.865 98.2273 382.032 97.9882 381.308 97.5099C380.588 97.0317 380.024 96.3712 379.617 95.5284C379.21 94.6809 379.006 93.7031 379.006 92.5952C379.006 91.4777 379.21 90.4953 379.617 89.6477C380.024 88.7955 380.588 88.1326 381.308 87.6591C382.032 87.1809 382.865 86.9418 383.808 86.9418C384.75 86.9418 385.581 87.1809 386.3 87.6591C387.02 88.1373 387.584 88.8002 387.991 89.6477C388.403 90.4953 388.609 91.4777 388.609 92.5952C388.609 93.7031 388.405 94.6809 387.998 95.5284C387.591 96.3712 387.025 97.0317 386.3 97.5099C385.581 97.9882 384.75 98.2273 383.808 98.2273ZM383.808 97.0696C384.565 97.0696 385.207 96.866 385.732 96.4588C386.258 96.0516 386.656 95.5095 386.925 94.8324C387.2 94.1553 387.337 93.4096 387.337 92.5952C387.337 91.7808 387.2 91.0327 386.925 90.3509C386.656 89.669 386.258 89.1222 385.732 88.7102C385.207 88.2983 384.565 88.0923 383.808 88.0923C383.055 88.0923 382.413 88.2983 381.883 88.7102C381.357 89.1222 380.957 89.669 380.683 90.3509C380.413 91.0327 380.278 91.7808 380.278 92.5952C380.278 93.4096 380.413 94.1553 380.683 94.8324C380.957 95.5095 381.357 96.0516 381.883 96.4588C382.408 96.866 383.05 97.0696 383.808 97.0696ZM399.658 87.0909V96.7997H400.816V101.53H399.551V98H391.398V87.0909H392.669V96.8068H398.387V87.0909H399.658ZM407.806 98.2273C406.788 98.2273 405.907 97.9905 405.164 97.517C404.421 97.0388 403.845 96.3783 403.438 95.5355C403.036 94.688 402.835 93.7126 402.835 92.6094C402.835 91.5109 403.036 90.5355 403.438 89.6832C403.845 88.8262 404.406 88.1562 405.121 87.6733C405.841 87.1856 406.672 86.9418 407.614 86.9418C408.206 86.9418 408.777 87.0507 409.326 87.2685C409.875 87.4815 410.368 87.8106 410.803 88.2557C411.244 88.696 411.592 89.2524 411.847 89.9247C412.103 90.5923 412.231 91.383 412.231 92.2969V92.9219H403.708V91.8068H410.938C410.938 91.1061 410.796 90.4763 410.512 89.9176C410.233 89.3542 409.842 88.9091 409.34 88.5824C408.843 88.2557 408.268 88.0923 407.614 88.0923C406.923 88.0923 406.315 88.277 405.789 88.6463C405.263 89.0156 404.852 89.5033 404.553 90.1094C404.26 90.7154 404.111 91.3783 404.106 92.098V92.7656C404.106 93.6321 404.255 94.3897 404.553 95.0384C404.856 95.6823 405.285 96.1818 405.839 96.5369C406.393 96.892 407.049 97.0696 407.806 97.0696C408.322 97.0696 408.774 96.9891 409.163 96.8281C409.556 96.6671 409.885 96.4517 410.15 96.1818C410.42 95.9072 410.623 95.6065 410.761 95.2798L411.961 95.6705C411.795 96.1297 411.523 96.5535 411.144 96.9418C410.77 97.33 410.301 97.6425 409.738 97.8793C409.179 98.1113 408.535 98.2273 407.806 98.2273ZM422.382 91.956V93.1491H415.968V91.956H422.382ZM416.281 87.0909V98H415.017V87.0909H416.281ZM423.312 87.0909V98H422.048V87.0909H423.312ZM426.677 98V87.0909H427.941V91.9986H429.127L433.183 87.0909H434.816L430.441 92.3395L434.915 98H433.282L429.518 93.1918H427.941V98H426.677ZM440.951 98.2273C439.933 98.2273 439.052 97.9905 438.309 97.517C437.565 97.0388 436.99 96.3783 436.583 95.5355C436.18 94.688 435.979 93.7126 435.979 92.6094C435.979 91.5109 436.18 90.5355 436.583 89.6832C436.99 88.8262 437.551 88.1562 438.266 87.6733C438.986 87.1856 439.817 86.9418 440.759 86.9418C441.351 86.9418 441.921 87.0507 442.471 87.2685C443.02 87.4815 443.512 87.8106 443.948 88.2557C444.388 88.696 444.736 89.2524 444.992 89.9247C445.248 90.5923 445.375 91.383 445.375 92.2969V92.9219H436.853V91.8068H444.083C444.083 91.1061 443.941 90.4763 443.657 89.9176C443.377 89.3542 442.987 88.9091 442.485 88.5824C441.988 88.2557 441.412 88.0923 440.759 88.0923C440.068 88.0923 439.459 88.277 438.934 88.6463C438.408 89.0156 437.996 89.5033 437.698 90.1094C437.404 90.7154 437.255 91.3783 437.25 92.098V92.7656C437.25 93.6321 437.4 94.3897 437.698 95.0384C438.001 95.6823 438.429 96.1818 438.983 96.5369C439.537 96.892 440.193 97.0696 440.951 97.0696C441.467 97.0696 441.919 96.9891 442.307 96.8281C442.7 96.6671 443.029 96.4517 443.294 96.1818C443.564 95.9072 443.768 95.6065 443.905 95.2798L445.105 95.6705C444.94 96.1297 444.667 96.5535 444.289 96.9418C443.915 97.33 443.446 97.6425 442.882 97.8793C442.324 98.1113 441.68 98.2273 440.951 98.2273ZM453.786 98V87.0909H455.05V91.9986H456.237L460.292 87.0909H461.925L457.55 92.3395L462.025 98H460.391L456.627 93.1918H455.05V98H453.786ZM464.099 98V87.0909H468.396C469.556 87.0909 470.469 87.3419 471.137 87.8438C471.809 88.3456 472.146 89.0227 472.146 89.875C472.146 90.5237 471.959 91.0421 471.585 91.4304C471.21 91.8187 470.709 92.0933 470.079 92.2543C470.5 92.3253 470.891 92.4792 471.251 92.7159C471.615 92.9527 471.911 93.2652 472.138 93.6534C472.366 94.0417 472.479 94.5057 472.479 95.0455C472.479 95.6136 472.337 96.1203 472.053 96.5653C471.769 97.0104 471.369 97.3608 470.853 97.6165C470.337 97.8722 469.726 98 469.021 98H464.099ZM465.306 96.8281H469.021C469.688 96.8281 470.216 96.6577 470.604 96.3168C470.993 95.9711 471.187 95.5118 471.187 94.9389C471.187 94.3281 471.002 93.8404 470.633 93.4759C470.268 93.1065 469.778 92.9219 469.163 92.9219H465.306V96.8281ZM465.306 91.7997H468.474C468.966 91.7997 469.392 91.724 469.752 91.5724C470.112 91.4209 470.389 91.2079 470.583 90.9332C470.782 90.6539 470.879 90.3272 470.874 89.9531C470.874 89.4181 470.656 89.0038 470.221 88.7102C469.785 88.4119 469.177 88.2628 468.396 88.2628H465.306V91.7997ZM478.298 98.2486C477.64 98.2486 477.038 98.1207 476.494 97.8651C475.949 97.6046 475.516 97.2306 475.194 96.7429C474.872 96.2505 474.711 95.6539 474.711 94.9531C474.711 94.4134 474.813 93.9588 475.017 93.5895C475.22 93.2202 475.509 92.9171 475.883 92.6804C476.257 92.4437 476.7 92.2566 477.211 92.1193C477.723 91.982 478.286 91.8755 478.902 91.7997C479.512 91.724 480.029 91.6577 480.45 91.6009C480.876 91.544 481.2 91.4541 481.423 91.331C481.645 91.2079 481.757 91.009 481.757 90.7344V90.4787C481.757 89.7353 481.534 89.1506 481.089 88.7244C480.649 88.2936 480.014 88.0781 479.186 88.0781C478.4 88.0781 477.758 88.2509 477.261 88.5966C476.769 88.9422 476.423 89.3494 476.224 89.8182L475.024 89.3849C475.27 88.7884 475.611 88.3125 476.047 87.9574C476.482 87.5975 476.97 87.3395 477.51 87.1832C478.049 87.0223 478.596 86.9418 479.15 86.9418C479.567 86.9418 480 86.9962 480.45 87.1051C480.904 87.214 481.326 87.4034 481.714 87.6733C482.102 87.9384 482.417 88.3101 482.659 88.7884C482.9 89.2618 483.021 89.8632 483.021 90.5923V98H481.757V96.2741H481.679C481.527 96.5961 481.302 96.9086 481.004 97.2116C480.706 97.5147 480.332 97.7633 479.882 97.9574C479.432 98.1515 478.904 98.2486 478.298 98.2486ZM478.468 97.0909C479.141 97.0909 479.723 96.9418 480.216 96.6435C480.708 96.3452 481.087 95.9498 481.352 95.4574C481.622 94.9602 481.757 94.4134 481.757 93.8168V92.2401C481.662 92.33 481.503 92.4105 481.281 92.4815C481.063 92.5526 480.81 92.6165 480.521 92.6733C480.237 92.7254 479.953 92.7704 479.669 92.8082C479.385 92.8461 479.129 92.8793 478.902 92.9077C478.286 92.9834 477.761 93.1018 477.325 93.2628C476.889 93.4238 476.556 93.6463 476.324 93.9304C476.092 94.2098 475.975 94.5696 475.975 95.0099C475.975 95.6728 476.212 96.1866 476.686 96.5511C477.159 96.911 477.753 97.0909 478.468 97.0909ZM485.311 98V96.8068H485.652C486.041 96.8068 486.353 96.7358 486.59 96.5938C486.831 96.447 487.018 96.2008 487.151 95.8551C487.283 95.5095 487.383 95.0384 487.449 94.4418C487.516 93.8452 487.568 93.0971 487.605 92.1974L487.84 87.0909H494.772V98H493.5V88.2841H489.04L488.834 92.6236C488.792 93.509 488.721 94.2879 488.621 94.9602C488.526 95.6326 488.37 96.1937 488.152 96.6435C487.939 97.0933 487.641 97.4318 487.257 97.6591C486.879 97.8864 486.382 98 485.766 98H485.311ZM499.386 96.2031L505.146 87.0909H506.659V98H505.395V88.8878L499.656 98H498.122V87.0909H499.386V96.2031ZM514.607 101.722V83.4545H515.878V101.722H514.607ZM514.607 98.2273C513.854 98.2273 513.162 98.09 512.533 97.8153C511.903 97.5407 511.356 97.1525 510.892 96.6506C510.433 96.1439 510.075 95.5473 509.82 94.8608C509.564 94.1742 509.436 93.4214 509.436 92.6023C509.436 91.7737 509.564 91.0137 509.82 90.3224C510.075 89.6312 510.433 89.0346 510.892 88.5327C511.356 88.0308 511.903 87.6425 512.533 87.3679C513.162 87.0885 513.854 86.9489 514.607 86.9489H514.983V98.2273H514.607ZM514.607 97.0696H514.812V88.1065H514.607C513.996 88.1065 513.449 88.2273 512.966 88.4688C512.483 88.7055 512.073 89.0322 511.737 89.4489C511.401 89.8655 511.145 90.3437 510.97 90.8835C510.795 91.4233 510.707 91.9962 510.707 92.6023C510.707 93.4072 510.861 94.1482 511.169 94.8253C511.482 95.5024 511.929 96.0469 512.511 96.4588C513.094 96.8707 513.792 97.0743 514.607 97.0696ZM515.878 98.2273H515.494V86.9489H515.878C516.626 86.9489 517.315 87.0885 517.945 87.3679C518.579 87.6425 519.126 88.0308 519.585 88.5327C520.049 89.0346 520.409 89.6312 520.665 90.3224C520.92 91.0137 521.048 91.7737 521.048 92.6023C521.048 93.4214 520.92 94.1742 520.665 94.8608C520.409 95.5473 520.049 96.1439 519.585 96.6506C519.126 97.1525 518.579 97.5407 517.945 97.8153C517.315 98.09 516.626 98.2273 515.878 98.2273ZM515.878 97.0696C516.489 97.0696 517.033 96.9536 517.511 96.7216C517.994 96.4848 518.404 96.1581 518.74 95.7415C519.081 95.3248 519.339 94.849 519.514 94.3139C519.689 93.7741 519.777 93.2036 519.777 92.6023C519.777 91.7973 519.621 91.054 519.308 90.3722C519 89.6903 518.555 89.1435 517.973 88.7315C517.391 88.3149 516.692 88.1065 515.878 88.1065H515.665V97.0696H515.878ZM525.089 96.2031L530.849 87.0909H532.362V98H531.098V88.8878L525.359 98H523.825V87.0909H525.089V96.2031ZM535.7 98V87.0909H536.964V91.9986H538.151L542.206 87.0909H543.839L539.464 92.3395L543.939 98H542.305L538.541 93.1918H536.964V98H535.7ZM549.06 98.2486C548.402 98.2486 547.8 98.1207 547.256 97.8651C546.711 97.6046 546.278 97.2306 545.956 96.7429C545.634 96.2505 545.473 95.6539 545.473 94.9531C545.473 94.4134 545.575 93.9588 545.778 93.5895C545.982 93.2202 546.271 92.9171 546.645 92.6804C547.019 92.4437 547.462 92.2566 547.973 92.1193C548.484 91.982 549.048 91.8755 549.663 91.7997C550.274 91.724 550.79 91.6577 551.212 91.6009C551.638 91.544 551.962 91.4541 552.185 91.331C552.407 91.2079 552.518 91.009 552.518 90.7344V90.4787C552.518 89.7353 552.296 89.1506 551.851 88.7244C551.411 88.2936 550.776 88.0781 549.947 88.0781C549.161 88.0781 548.52 88.2509 548.023 88.5966C547.53 88.9422 547.185 89.3494 546.986 89.8182L545.786 89.3849C546.032 88.7884 546.373 88.3125 546.808 87.9574C547.244 87.5975 547.732 87.3395 548.271 87.1832C548.811 87.0223 549.358 86.9418 549.912 86.9418C550.329 86.9418 550.762 86.9962 551.212 87.1051C551.666 87.214 552.088 87.4034 552.476 87.6733C552.864 87.9384 553.179 88.3101 553.42 88.7884C553.662 89.2618 553.783 89.8632 553.783 90.5923V98H552.518V96.2741H552.44C552.289 96.5961 552.064 96.9086 551.766 97.2116C551.467 97.5147 551.093 97.7633 550.643 97.9574C550.194 98.1515 549.666 98.2486 549.06 98.2486ZM549.23 97.0909C549.902 97.0909 550.485 96.9418 550.977 96.6435C551.47 96.3452 551.848 95.9498 552.114 95.4574C552.384 94.9602 552.518 94.4134 552.518 93.8168V92.2401C552.424 92.33 552.265 92.4105 552.043 92.4815C551.825 92.5526 551.571 92.6165 551.283 92.6733C550.999 92.7254 550.714 92.7704 550.43 92.8082C550.146 92.8461 549.891 92.8793 549.663 92.9077C549.048 92.9834 548.522 93.1018 548.087 93.2628C547.651 93.4238 547.317 93.6463 547.085 93.9304C546.853 94.2098 546.737 94.5696 546.737 95.0099C546.737 95.6728 546.974 96.1866 547.447 96.5511C547.921 96.911 548.515 97.0909 549.23 97.0909ZM565.42 87.0909V96.7997H566.577V101.53H565.313V98H557.16V87.0909H558.431V96.8068H564.148V87.0909H565.42ZM570.539 96.2031L576.299 87.0909H577.811V98H576.547V88.8878L570.809 98H569.275V87.0909H570.539V96.2031ZM582.414 96.2031L588.174 87.0909H589.686V98H588.422V88.8878L582.684 98H581.15V87.0909H582.414V96.2031ZM3.66903 122V111.091H7.96591C9.12595 111.091 10.0398 111.342 10.7074 111.844C11.3797 112.346 11.7159 113.023 11.7159 113.875C11.7159 114.524 11.5289 115.042 11.1548 115.43C10.7808 115.819 10.2789 116.093 9.64915 116.254C10.0705 116.325 10.4612 116.479 10.821 116.716C11.1856 116.953 11.4815 117.265 11.7088 117.653C11.9361 118.042 12.0497 118.506 12.0497 119.045C12.0497 119.614 11.9077 120.12 11.6236 120.565C11.3395 121.01 10.9394 121.361 10.4233 121.616C9.9072 121.872 9.2964 122 8.59091 122H3.66903ZM4.87642 120.828H8.59091C9.25852 120.828 9.78646 120.658 10.1747 120.317C10.563 119.971 10.7571 119.512 10.7571 118.939C10.7571 118.328 10.5724 117.84 10.2031 117.476C9.83854 117.107 9.34848 116.922 8.73295 116.922H4.87642V120.828ZM4.87642 115.8H8.04403C8.53646 115.8 8.96259 115.724 9.32244 115.572C9.68229 115.421 9.95928 115.208 10.1534 114.933C10.3523 114.654 10.4493 114.327 10.4446 113.953C10.4446 113.418 10.2268 113.004 9.79119 112.71C9.35559 112.412 8.74716 112.263 7.96591 112.263H4.87642V115.8ZM24.6864 122.227C23.7442 122.227 22.9109 121.988 22.1864 121.51C21.4667 121.032 20.9033 120.371 20.4961 119.528C20.0889 118.681 19.8853 117.703 19.8853 116.595C19.8853 115.478 20.0889 114.495 20.4961 113.648C20.9033 112.795 21.4667 112.133 22.1864 111.659C22.9109 111.181 23.7442 110.942 24.6864 110.942C25.6287 110.942 26.4596 111.181 27.1793 111.659C27.899 112.137 28.4625 112.8 28.8697 113.648C29.2816 114.495 29.4876 115.478 29.4876 116.595C29.4876 117.703 29.284 118.681 28.8768 119.528C28.4696 120.371 27.9038 121.032 27.1793 121.51C26.4596 121.988 25.6287 122.227 24.6864 122.227ZM24.6864 121.07C25.444 121.07 26.0856 120.866 26.6112 120.459C27.1367 120.052 27.5344 119.509 27.8043 118.832C28.079 118.155 28.2163 117.41 28.2163 116.595C28.2163 115.781 28.079 115.033 27.8043 114.351C27.5344 113.669 27.1367 113.122 26.6112 112.71C26.0856 112.298 25.444 112.092 24.6864 112.092C23.9336 112.092 23.292 112.298 22.7617 112.71C22.2362 113.122 21.8361 113.669 21.5614 114.351C21.2915 115.033 21.1566 115.781 21.1566 116.595C21.1566 117.41 21.2915 118.155 21.5614 118.832C21.8361 119.509 22.2362 120.052 22.7617 120.459C23.2873 120.866 23.9289 121.07 24.6864 121.07ZM40.1179 107L40.7784 107.803C40.4801 108.091 40.1226 108.29 39.706 108.399C39.294 108.503 38.8324 108.562 38.321 108.577C37.8144 108.591 37.2675 108.612 36.6804 108.641C35.8376 108.683 35.1439 108.903 34.5994 109.301C34.0549 109.694 33.6406 110.262 33.3565 111.006C33.0772 111.744 32.902 112.646 32.831 113.712H32.973C33.3376 112.968 33.8513 112.402 34.5142 112.014C35.1818 111.626 35.9157 111.432 36.7159 111.432C37.554 111.432 38.3068 111.638 38.9744 112.05C39.6468 112.457 40.1771 113.056 40.5653 113.847C40.9583 114.633 41.1548 115.591 41.1548 116.723C41.1548 117.84 40.9583 118.813 40.5653 119.642C40.1723 120.466 39.6231 121.103 38.9176 121.553C38.2121 122.002 37.3859 122.227 36.4389 122.227C35.4872 122.227 34.6539 122.005 33.9389 121.56C33.2287 121.11 32.6771 120.449 32.2841 119.578C31.8958 118.702 31.7017 117.625 31.7017 116.347V115.203C31.7017 112.661 32.1042 110.748 32.9091 109.464C33.714 108.181 34.9522 107.511 36.6236 107.455C37.1634 107.436 37.6534 107.431 38.0938 107.44C38.5341 107.445 38.9223 107.424 39.2585 107.376C39.5947 107.324 39.8812 107.199 40.1179 107ZM36.4389 121.07C37.1444 121.07 37.7552 120.892 38.2713 120.537C38.7874 120.177 39.1851 119.67 39.4645 119.017C39.7486 118.364 39.8906 117.599 39.8906 116.723C39.8906 115.852 39.7462 115.108 39.4574 114.493C39.1733 113.877 38.7756 113.406 38.2642 113.08C37.7528 112.753 37.1539 112.589 36.4673 112.589C35.9276 112.589 35.4422 112.694 35.0114 112.902C34.5852 113.106 34.2206 113.397 33.9176 113.776C33.6146 114.154 33.3826 114.599 33.2216 115.111C33.0606 115.622 32.9777 116.183 32.973 116.794C32.973 118.115 33.2808 119.159 33.8963 119.926C34.5166 120.688 35.3641 121.07 36.4389 121.07ZM42.8505 122V120.807H43.1914C43.5797 120.807 43.8922 120.736 44.1289 120.594C44.3704 120.447 44.5574 120.201 44.69 119.855C44.8226 119.509 44.922 119.038 44.9883 118.442C45.0546 117.845 45.1067 117.097 45.1445 116.197L45.3789 111.091H52.3107V122H51.0394V112.284H46.5792L46.3732 116.624C46.3306 117.509 46.2596 118.288 46.1602 118.96C46.0655 119.633 45.9092 120.194 45.6914 120.643C45.4783 121.093 45.18 121.432 44.7965 121.659C44.4177 121.886 43.9206 122 43.305 122H42.8505ZM58.7081 122.249C58.05 122.249 57.4486 122.121 56.9041 121.865C56.3596 121.605 55.9264 121.231 55.6044 120.743C55.2824 120.25 55.1214 119.654 55.1214 118.953C55.1214 118.413 55.2232 117.959 55.4268 117.589C55.6304 117.22 55.9193 116.917 56.2933 116.68C56.6674 116.444 57.1101 116.257 57.6214 116.119C58.1328 115.982 58.6963 115.875 59.3118 115.8C59.9226 115.724 60.4387 115.658 60.8601 115.601C61.2862 115.544 61.6106 115.454 61.8331 115.331C62.0556 115.208 62.1669 115.009 62.1669 114.734V114.479C62.1669 113.735 61.9444 113.151 61.4993 112.724C61.0589 112.294 60.4245 112.078 59.5959 112.078C58.8099 112.078 58.1683 112.251 57.6712 112.597C57.1787 112.942 56.8331 113.349 56.6342 113.818L55.4339 113.385C55.6802 112.788 56.0211 112.312 56.4567 111.957C56.8923 111.598 57.38 111.339 57.9197 111.183C58.4595 111.022 59.0064 110.942 59.5604 110.942C59.977 110.942 60.4103 110.996 60.8601 111.105C61.3146 111.214 61.736 111.403 62.1243 111.673C62.5125 111.938 62.8274 112.31 63.0689 112.788C63.3104 113.262 63.4311 113.863 63.4311 114.592V122H62.1669V120.274H62.0888C61.9373 120.596 61.7124 120.909 61.4141 121.212C61.1158 121.515 60.7417 121.763 60.2919 121.957C59.8421 122.152 59.3142 122.249 58.7081 122.249ZM58.8786 121.091C59.5509 121.091 60.1333 120.942 60.6257 120.643C61.1181 120.345 61.4969 119.95 61.7621 119.457C62.032 118.96 62.1669 118.413 62.1669 117.817V116.24C62.0722 116.33 61.9136 116.411 61.6911 116.482C61.4732 116.553 61.2199 116.616 60.9311 116.673C60.647 116.725 60.3629 116.77 60.0788 116.808C59.7947 116.846 59.5391 116.879 59.3118 116.908C58.6963 116.983 58.1707 117.102 57.7351 117.263C57.2995 117.424 56.9657 117.646 56.7337 117.93C56.5017 118.21 56.3857 118.57 56.3857 119.01C56.3857 119.673 56.6224 120.187 57.0959 120.551C57.5694 120.911 58.1636 121.091 58.8786 121.091ZM71.0554 122.227C70.08 122.227 69.2301 121.983 68.5057 121.496C67.786 121.008 67.2273 120.34 66.8295 119.493C66.4318 118.645 66.233 117.679 66.233 116.595C66.233 115.501 66.4342 114.528 66.8366 113.676C67.2438 112.824 67.8073 112.156 68.527 111.673C69.2467 111.186 70.0824 110.942 71.0341 110.942C71.7633 110.942 72.4238 111.084 73.0156 111.368C73.6075 111.647 74.0952 112.043 74.4787 112.554C74.867 113.061 75.1108 113.652 75.2102 114.33H73.9318C73.7992 113.714 73.4796 113.188 72.973 112.753C72.4711 112.312 71.8319 112.092 71.0554 112.092C70.3594 112.092 69.7438 112.282 69.2088 112.661C68.6738 113.035 68.2547 113.558 67.9517 114.23C67.6534 114.898 67.5043 115.672 67.5043 116.553C67.5043 117.438 67.651 118.222 67.9446 118.903C68.2382 119.58 68.6501 120.111 69.1804 120.494C69.7154 120.878 70.3404 121.07 71.0554 121.07C71.5384 121.07 71.9787 120.98 72.3764 120.8C72.7789 120.615 73.1151 120.355 73.3849 120.018C73.6596 119.682 73.8442 119.282 73.9389 118.818H75.2173C75.1226 119.476 74.8883 120.063 74.5142 120.58C74.1449 121.091 73.6643 121.493 73.0724 121.787C72.4853 122.08 71.813 122.227 71.0554 122.227ZM77.0249 112.284V111.091H85.5476V112.284H81.9396V122H80.6754V112.284H77.0249ZM89.484 120.203L95.244 111.091H96.7567V122H95.4925V112.888L89.7539 122H88.2198V111.091H89.484V120.203ZM105.734 122V111.091H113.994V122H112.723V112.284H107.005V122H105.734ZM117.341 126.091V111.091H118.57V113.172H118.719C118.87 112.845 119.079 112.511 119.344 112.17C119.609 111.825 119.959 111.534 120.395 111.297C120.835 111.06 121.389 110.942 122.057 110.942C122.956 110.942 123.742 111.179 124.415 111.652C125.092 112.121 125.617 112.779 125.991 113.626C126.37 114.469 126.56 115.452 126.56 116.574C126.56 117.701 126.37 118.688 125.991 119.536C125.617 120.383 125.092 121.044 124.415 121.517C123.742 121.991 122.961 122.227 122.071 122.227C121.413 122.227 120.861 122.109 120.416 121.872C119.976 121.635 119.618 121.344 119.344 120.999C119.074 120.648 118.866 120.307 118.719 119.976H118.605V126.091H117.341ZM118.591 116.553C118.591 117.433 118.721 118.214 118.982 118.896C119.247 119.573 119.625 120.106 120.118 120.494C120.615 120.878 121.216 121.07 121.922 121.07C122.646 121.07 123.257 120.871 123.754 120.473C124.256 120.071 124.637 119.528 124.898 118.847C125.163 118.165 125.295 117.4 125.295 116.553C125.295 115.714 125.165 114.959 124.905 114.287C124.649 113.615 124.27 113.082 123.768 112.689C123.267 112.291 122.651 112.092 121.922 112.092C121.212 112.092 120.608 112.284 120.111 112.668C119.614 113.046 119.235 113.572 118.974 114.244C118.719 114.912 118.591 115.681 118.591 116.553ZM133.573 122.227C132.631 122.227 131.798 121.988 131.073 121.51C130.353 121.032 129.79 120.371 129.383 119.528C128.976 118.681 128.772 117.703 128.772 116.595C128.772 115.478 128.976 114.495 129.383 113.648C129.79 112.795 130.353 112.133 131.073 111.659C131.798 111.181 132.631 110.942 133.573 110.942C134.515 110.942 135.346 111.181 136.066 111.659C136.786 112.137 137.349 112.8 137.756 113.648C138.168 114.495 138.374 115.478 138.374 116.595C138.374 117.703 138.171 118.681 137.763 119.528C137.356 120.371 136.79 121.032 136.066 121.51C135.346 121.988 134.515 122.227 133.573 122.227ZM133.573 121.07C134.331 121.07 134.972 120.866 135.498 120.459C136.023 120.052 136.421 119.509 136.691 118.832C136.966 118.155 137.103 117.41 137.103 116.595C137.103 115.781 136.966 115.033 136.691 114.351C136.421 113.669 136.023 113.122 135.498 112.71C134.972 112.298 134.331 112.092 133.573 112.092C132.82 112.092 132.179 112.298 131.648 112.71C131.123 113.122 130.723 113.669 130.448 114.351C130.178 115.033 130.043 115.781 130.043 116.595C130.043 117.41 130.178 118.155 130.448 118.832C130.723 119.509 131.123 120.052 131.648 120.459C132.174 120.866 132.816 121.07 133.573 121.07ZM146.853 120.232L150.951 111.091H152.179L147.357 122H146.348L141.583 111.091H142.79L146.853 120.232ZM142.414 111.091V122H141.15V111.091H142.414ZM151.292 122V111.091H152.556V122H151.292ZM156.98 115.303H160.176C161.403 115.303 162.35 115.601 163.017 116.197C163.685 116.794 164.019 117.601 164.019 118.619C164.019 119.296 163.867 119.888 163.564 120.395C163.266 120.902 162.83 121.297 162.257 121.581C161.685 121.86 160.991 122 160.176 122H155.929V111.091H157.201V120.807H160.176C160.948 120.807 161.569 120.622 162.037 120.253C162.511 119.884 162.748 119.358 162.748 118.676C162.748 117.98 162.511 117.443 162.037 117.064C161.569 116.685 160.948 116.496 160.176 116.496H156.98V115.303ZM165.858 122V111.091H167.123V122H165.858ZM170.485 111.091H171.75V120.807H176.224V111.091H177.488V120.807H181.963V111.091H183.227V122H170.485V111.091ZM185.507 122V120.807H185.848C186.236 120.807 186.548 120.736 186.785 120.594C187.027 120.447 187.214 120.201 187.346 119.855C187.479 119.509 187.578 119.038 187.645 118.442C187.711 117.845 187.763 117.097 187.801 116.197L188.035 111.091H194.967V122H193.696V112.284H189.235L189.029 116.624C188.987 117.509 188.916 118.288 188.816 118.96C188.722 119.633 188.565 120.194 188.348 120.643C188.135 121.093 187.836 121.432 187.453 121.659C187.074 121.886 186.577 122 185.961 122H185.507ZM202.728 122.227C201.71 122.227 200.829 121.991 200.086 121.517C199.343 121.039 198.767 120.378 198.36 119.536C197.958 118.688 197.756 117.713 197.756 116.609C197.756 115.511 197.958 114.536 198.36 113.683C198.767 112.826 199.328 112.156 200.043 111.673C200.763 111.186 201.594 110.942 202.536 110.942C203.128 110.942 203.699 111.051 204.248 111.268C204.797 111.482 205.29 111.811 205.725 112.256C206.165 112.696 206.513 113.252 206.769 113.925C207.025 114.592 207.153 115.383 207.153 116.297V116.922H198.63V115.807H205.86C205.86 115.106 205.718 114.476 205.434 113.918C205.155 113.354 204.764 112.909 204.262 112.582C203.765 112.256 203.19 112.092 202.536 112.092C201.845 112.092 201.237 112.277 200.711 112.646C200.185 113.016 199.773 113.503 199.475 114.109C199.182 114.715 199.032 115.378 199.028 116.098V116.766C199.028 117.632 199.177 118.39 199.475 119.038C199.778 119.682 200.207 120.182 200.761 120.537C201.315 120.892 201.97 121.07 202.728 121.07C203.244 121.07 203.696 120.989 204.085 120.828C204.478 120.667 204.807 120.452 205.072 120.182C205.342 119.907 205.545 119.607 205.683 119.28L206.883 119.67C206.717 120.13 206.445 120.554 206.066 120.942C205.692 121.33 205.223 121.643 204.66 121.879C204.101 122.111 203.457 122.227 202.728 122.227ZM217.304 115.956V117.149H210.89V115.956H217.304ZM211.203 111.091V122H209.939V111.091H211.203ZM218.234 111.091V122H216.97V111.091H218.234ZM228.964 115.956V117.149H222.55V115.956H228.964ZM222.863 111.091V122H221.599V111.091H222.863ZM229.894 111.091V122H228.63V111.091H229.894ZM237.499 122.227C236.557 122.227 235.723 121.988 234.999 121.51C234.279 121.032 233.716 120.371 233.309 119.528C232.901 118.681 232.698 117.703 232.698 116.595C232.698 115.478 232.901 114.495 233.309 113.648C233.716 112.795 234.279 112.133 234.999 111.659C235.723 111.181 236.557 110.942 237.499 110.942C238.441 110.942 239.272 111.181 239.992 111.659C240.712 112.137 241.275 112.8 241.682 113.648C242.094 114.495 242.3 115.478 242.3 116.595C242.3 117.703 242.096 118.681 241.689 119.528C241.282 120.371 240.716 121.032 239.992 121.51C239.272 121.988 238.441 122.227 237.499 122.227ZM237.499 121.07C238.257 121.07 238.898 120.866 239.424 120.459C239.949 120.052 240.347 119.509 240.617 118.832C240.891 118.155 241.029 117.41 241.029 116.595C241.029 115.781 240.891 115.033 240.617 114.351C240.347 113.669 239.949 113.122 239.424 112.71C238.898 112.298 238.257 112.092 237.499 112.092C236.746 112.092 236.105 112.298 235.574 112.71C235.049 113.122 234.649 113.669 234.374 114.351C234.104 115.033 233.969 115.781 233.969 116.595C233.969 117.41 234.104 118.155 234.374 118.832C234.649 119.509 235.049 120.052 235.574 120.459C236.1 120.866 236.741 121.07 237.499 121.07ZM246.339 120.203L252.099 111.091H253.612V122H252.348V112.888L246.609 122H245.075V111.091H246.339V120.203ZM250.651 107.455H251.844C251.844 108.132 251.619 108.681 251.169 109.102C250.724 109.524 250.116 109.734 249.344 109.734C248.581 109.734 247.978 109.524 247.533 109.102C247.088 108.681 246.865 108.132 246.865 107.455H248.058C248.058 107.824 248.158 108.136 248.357 108.392C248.56 108.643 248.889 108.768 249.344 108.768C249.798 108.768 250.13 108.643 250.338 108.392C250.546 108.136 250.651 107.824 250.651 107.455ZM270.43 107L271.091 107.803C270.793 108.091 270.435 108.29 270.018 108.399C269.607 108.503 269.145 108.562 268.634 108.577C268.127 108.591 267.58 108.612 266.993 108.641C266.15 108.683 265.456 108.903 264.912 109.301C264.367 109.694 263.953 110.262 263.669 111.006C263.39 111.744 263.214 112.646 263.143 113.712H263.286C263.65 112.968 264.164 112.402 264.827 112.014C265.494 111.626 266.228 111.432 267.028 111.432C267.866 111.432 268.619 111.638 269.287 112.05C269.959 112.457 270.49 113.056 270.878 113.847C271.271 114.633 271.467 115.591 271.467 116.723C271.467 117.84 271.271 118.813 270.878 119.642C270.485 120.466 269.936 121.103 269.23 121.553C268.525 122.002 267.698 122.227 266.751 122.227C265.8 122.227 264.966 122.005 264.251 121.56C263.541 121.11 262.99 120.449 262.597 119.578C262.208 118.702 262.014 117.625 262.014 116.347V115.203C262.014 112.661 262.417 110.748 263.222 109.464C264.027 108.181 265.265 107.511 266.936 107.455C267.476 107.436 267.966 107.431 268.406 107.44C268.847 107.445 269.235 107.424 269.571 107.376C269.907 107.324 270.194 107.199 270.43 107ZM266.751 121.07C267.457 121.07 268.068 120.892 268.584 120.537C269.1 120.177 269.498 119.67 269.777 119.017C270.061 118.364 270.203 117.599 270.203 116.723C270.203 115.852 270.059 115.108 269.77 114.493C269.486 113.877 269.088 113.406 268.577 113.08C268.065 112.753 267.466 112.589 266.78 112.589C266.24 112.589 265.755 112.694 265.324 112.902C264.898 113.106 264.533 113.397 264.23 113.776C263.927 114.154 263.695 114.599 263.534 115.111C263.373 115.622 263.29 116.183 263.286 116.794C263.286 118.115 263.593 119.159 264.209 119.926C264.829 120.688 265.677 121.07 266.751 121.07ZM278.646 122.227C277.628 122.227 276.747 121.991 276.004 121.517C275.261 121.039 274.685 120.378 274.278 119.536C273.876 118.688 273.674 117.713 273.674 116.609C273.674 115.511 273.876 114.536 274.278 113.683C274.685 112.826 275.246 112.156 275.961 111.673C276.681 111.186 277.512 110.942 278.454 110.942C279.046 110.942 279.617 111.051 280.166 111.268C280.715 111.482 281.208 111.811 281.643 112.256C282.083 112.696 282.431 113.252 282.687 113.925C282.943 114.592 283.071 115.383 283.071 116.297V116.922H274.548V115.807H281.778C281.778 115.106 281.636 114.476 281.352 113.918C281.073 113.354 280.682 112.909 280.18 112.582C279.683 112.256 279.108 112.092 278.454 112.092C277.763 112.092 277.154 112.277 276.629 112.646C276.103 113.016 275.691 113.503 275.393 114.109C275.1 114.715 274.95 115.378 274.946 116.098V116.766C274.946 117.632 275.095 118.39 275.393 119.038C275.696 119.682 276.125 120.182 276.679 120.537C277.233 120.892 277.888 121.07 278.646 121.07C279.162 121.07 279.614 120.989 280.002 120.828C280.395 120.667 280.725 120.452 280.99 120.182C281.26 119.907 281.463 119.607 281.6 119.28L282.801 119.67C282.635 120.13 282.363 120.554 281.984 120.942C281.61 121.33 281.141 121.643 280.578 121.879C280.019 122.111 279.375 122.227 278.646 122.227ZM285.153 119.216H286.496C286.534 119.798 286.785 120.253 287.249 120.58C287.713 120.906 288.323 121.07 289.081 121.07C289.867 121.07 290.516 120.894 291.027 120.544C291.538 120.189 291.794 119.673 291.794 118.996C291.794 118.584 291.697 118.226 291.503 117.923C291.313 117.62 291.053 117.384 290.722 117.213C290.395 117.038 290.023 116.948 289.607 116.943H287.703V115.786H289.585C290.234 115.748 290.726 115.572 291.062 115.26C291.399 114.943 291.567 114.528 291.567 114.017C291.567 113.435 291.361 112.968 290.949 112.618C290.537 112.263 289.978 112.085 289.273 112.085C288.558 112.085 287.964 112.26 287.49 112.611C287.017 112.961 286.766 113.411 286.737 113.96H285.409C285.433 113.368 285.61 112.848 285.942 112.398C286.273 111.943 286.721 111.588 287.284 111.332C287.852 111.077 288.496 110.949 289.216 110.949C289.955 110.949 290.596 111.081 291.141 111.347C291.685 111.612 292.107 111.974 292.405 112.433C292.703 112.888 292.852 113.404 292.852 113.982C292.852 114.583 292.687 115.078 292.355 115.466C292.028 115.849 291.609 116.119 291.098 116.276V116.382C291.486 116.425 291.827 116.567 292.121 116.808C292.419 117.05 292.653 117.36 292.824 117.739C292.994 118.117 293.08 118.536 293.08 118.996C293.08 119.64 292.911 120.205 292.575 120.693C292.239 121.176 291.77 121.553 291.169 121.822C290.572 122.092 289.884 122.227 289.102 122.227C288.349 122.227 287.679 122.102 287.092 121.851C286.505 121.595 286.039 121.242 285.693 120.793C285.352 120.338 285.172 119.812 285.153 119.216ZM299.921 122.227C298.979 122.227 298.145 121.988 297.421 121.51C296.701 121.032 296.138 120.371 295.73 119.528C295.323 118.681 295.12 117.703 295.12 116.595C295.12 115.478 295.323 114.495 295.73 113.648C296.138 112.795 296.701 112.133 297.421 111.659C298.145 111.181 298.979 110.942 299.921 110.942C300.863 110.942 301.694 111.181 302.414 111.659C303.133 112.137 303.697 112.8 304.104 113.648C304.516 114.495 304.722 115.478 304.722 116.595C304.722 117.703 304.518 118.681 304.111 119.528C303.704 120.371 303.138 121.032 302.414 121.51C301.694 121.988 300.863 122.227 299.921 122.227ZM299.921 121.07C300.678 121.07 301.32 120.866 301.846 120.459C302.371 120.052 302.769 119.509 303.039 118.832C303.313 118.155 303.451 117.41 303.451 116.595C303.451 115.781 303.313 115.033 303.039 114.351C302.769 113.669 302.371 113.122 301.846 112.71C301.32 112.298 300.678 112.092 299.921 112.092C299.168 112.092 298.526 112.298 297.996 112.71C297.471 113.122 297.07 113.669 296.796 114.351C296.526 115.033 296.391 115.781 296.391 116.595C296.391 117.41 296.526 118.155 296.796 118.832C297.07 119.509 297.471 120.052 297.996 120.459C298.522 120.866 299.163 121.07 299.921 121.07ZM307.511 122V111.091H315.771V122H314.5V112.284H308.783V122H307.511ZM322.165 122.249C321.507 122.249 320.906 122.121 320.361 121.865C319.817 121.605 319.383 121.231 319.061 120.743C318.739 120.25 318.578 119.654 318.578 118.953C318.578 118.413 318.68 117.959 318.884 117.589C319.087 117.22 319.376 116.917 319.75 116.68C320.124 116.444 320.567 116.257 321.078 116.119C321.59 115.982 322.153 115.875 322.769 115.8C323.38 115.724 323.896 115.658 324.317 115.601C324.743 115.544 325.068 115.454 325.29 115.331C325.513 115.208 325.624 115.009 325.624 114.734V114.479C325.624 113.735 325.401 113.151 324.956 112.724C324.516 112.294 323.882 112.078 323.053 112.078C322.267 112.078 321.625 112.251 321.128 112.597C320.636 112.942 320.29 113.349 320.091 113.818L318.891 113.385C319.137 112.788 319.478 112.312 319.914 111.957C320.349 111.598 320.837 111.339 321.377 111.183C321.917 111.022 322.463 110.942 323.017 110.942C323.434 110.942 323.867 110.996 324.317 111.105C324.772 111.214 325.193 111.403 325.581 111.673C325.97 111.938 326.284 112.31 326.526 112.788C326.767 113.262 326.888 113.863 326.888 114.592V122H325.624V120.274H325.546C325.394 120.596 325.169 120.909 324.871 121.212C324.573 121.515 324.199 121.763 323.749 121.957C323.299 122.152 322.771 122.249 322.165 122.249ZM322.336 121.091C323.008 121.091 323.59 120.942 324.083 120.643C324.575 120.345 324.954 119.95 325.219 119.457C325.489 118.96 325.624 118.413 325.624 117.817V116.24C325.529 116.33 325.371 116.411 325.148 116.482C324.93 116.553 324.677 116.616 324.388 116.673C324.104 116.725 323.82 116.77 323.536 116.808C323.252 116.846 322.996 116.879 322.769 116.908C322.153 116.983 321.628 117.102 321.192 117.263C320.757 117.424 320.423 117.646 320.191 117.93C319.959 118.21 319.843 118.57 319.843 119.01C319.843 119.673 320.079 120.187 320.553 120.551C321.026 120.911 321.621 121.091 322.336 121.091ZM334.512 122.227C333.537 122.227 332.687 121.983 331.963 121.496C331.243 121.008 330.684 120.34 330.287 119.493C329.889 118.645 329.69 117.679 329.69 116.595C329.69 115.501 329.891 114.528 330.294 113.676C330.701 112.824 331.264 112.156 331.984 111.673C332.704 111.186 333.539 110.942 334.491 110.942C335.22 110.942 335.881 111.084 336.473 111.368C337.065 111.647 337.552 112.043 337.936 112.554C338.324 113.061 338.568 113.652 338.667 114.33H337.389C337.256 113.714 336.937 113.188 336.43 112.753C335.928 112.312 335.289 112.092 334.512 112.092C333.816 112.092 333.201 112.282 332.666 112.661C332.131 113.035 331.712 113.558 331.409 114.23C331.11 114.898 330.961 115.672 330.961 116.553C330.961 117.438 331.108 118.222 331.402 118.903C331.695 119.58 332.107 120.111 332.637 120.494C333.172 120.878 333.797 121.07 334.512 121.07C334.995 121.07 335.436 120.98 335.833 120.8C336.236 120.615 336.572 120.355 336.842 120.018C337.117 119.682 337.301 119.282 337.396 118.818H338.674C338.58 119.476 338.345 120.063 337.971 120.58C337.602 121.091 337.121 121.493 336.529 121.787C335.942 122.08 335.27 122.227 334.512 122.227ZM348.749 115.956V117.149H342.336V115.956H348.749ZM342.648 111.091V122H341.384V111.091H342.648ZM349.679 111.091V122H348.415V111.091H349.679ZM357.284 122.227C356.342 122.227 355.509 121.988 354.784 121.51C354.064 121.032 353.501 120.371 353.094 119.528C352.687 118.681 352.483 117.703 352.483 116.595C352.483 115.478 352.687 114.495 353.094 113.648C353.501 112.795 354.064 112.133 354.784 111.659C355.509 111.181 356.342 110.942 357.284 110.942C358.226 110.942 359.057 111.181 359.777 111.659C360.497 112.137 361.06 112.8 361.467 113.648C361.879 114.495 362.085 115.478 362.085 116.595C362.085 117.703 361.882 118.681 361.474 119.528C361.067 120.371 360.501 121.032 359.777 121.51C359.057 121.988 358.226 122.227 357.284 122.227ZM357.284 121.07C358.042 121.07 358.683 120.866 359.209 120.459C359.734 120.052 360.132 119.509 360.402 118.832C360.677 118.155 360.814 117.41 360.814 116.595C360.814 115.781 360.677 115.033 360.402 114.351C360.132 113.669 359.734 113.122 359.209 112.71C358.683 112.298 358.042 112.092 357.284 112.092C356.531 112.092 355.89 112.298 355.359 112.71C354.834 113.122 354.434 113.669 354.159 114.351C353.889 115.033 353.754 115.781 353.754 116.595C353.754 117.41 353.889 118.155 354.159 118.832C354.434 119.509 354.834 120.052 355.359 120.459C355.885 120.866 356.527 121.07 357.284 121.07ZM369.122 122.227C368.146 122.227 367.297 121.983 366.572 121.496C365.852 121.008 365.294 120.34 364.896 119.493C364.498 118.645 364.299 117.679 364.299 116.595C364.299 115.501 364.501 114.528 364.903 113.676C365.31 112.824 365.874 112.156 366.593 111.673C367.313 111.186 368.149 110.942 369.1 110.942C369.83 110.942 370.49 111.084 371.082 111.368C371.674 111.647 372.162 112.043 372.545 112.554C372.933 113.061 373.177 113.652 373.277 114.33H371.998C371.866 113.714 371.546 113.188 371.039 112.753C370.538 112.312 369.898 112.092 369.122 112.092C368.426 112.092 367.81 112.282 367.275 112.661C366.74 113.035 366.321 113.558 366.018 114.23C365.72 114.898 365.571 115.672 365.571 116.553C365.571 117.438 365.717 118.222 366.011 118.903C366.305 119.58 366.717 120.111 367.247 120.494C367.782 120.878 368.407 121.07 369.122 121.07C369.605 121.07 370.045 120.98 370.443 120.8C370.845 120.615 371.181 120.355 371.451 120.018C371.726 119.682 371.911 119.282 372.005 118.818H373.284C373.189 119.476 372.955 120.063 372.581 120.58C372.211 121.091 371.731 121.493 371.139 121.787C370.552 122.08 369.879 122.227 369.122 122.227ZM375.091 112.284V111.091H383.614V112.284H380.006V122H378.742V112.284H375.091ZM387.55 120.203L393.31 111.091H394.823V122H393.559V112.888L387.82 122H386.286V111.091H387.55V120.203Z" fill="#395DF6"/>
<path d="M11.723 67.358C9.8821 67.358 8.24574 67.0426 6.81392 66.4119C5.39063 65.7812 4.26563 64.9034 3.43892 63.7784C2.61222 62.6534 2.1733 61.3537 2.12216 59.8793H6.92898C6.97159 60.5866 7.20597 61.2045 7.6321 61.733C8.05824 62.2528 8.625 62.6577 9.33239 62.9474C10.0398 63.2372 10.8324 63.3821 11.7102 63.3821C12.6477 63.3821 13.4787 63.2202 14.2031 62.8963C14.9276 62.5639 15.4943 62.1037 15.9034 61.5156C16.3125 60.9276 16.5128 60.25 16.5043 59.483C16.5128 58.6903 16.3082 57.9915 15.8906 57.3864C15.473 56.7812 14.8679 56.3082 14.0753 55.9673C13.2912 55.6264 12.3452 55.456 11.2372 55.456H8.9233V51.7997H11.2372C12.1491 51.7997 12.946 51.642 13.6278 51.3267C14.3182 51.0114 14.8594 50.5682 15.2514 49.9972C15.6435 49.4176 15.8352 48.7486 15.8267 47.9901C15.8352 47.2486 15.669 46.6051 15.3281 46.0597C14.9957 45.5057 14.5227 45.0753 13.9091 44.7685C13.304 44.4616 12.5923 44.3082 11.7741 44.3082C10.973 44.3082 10.2315 44.4531 9.54972 44.7429C8.8679 45.0327 8.31818 45.446 7.90057 45.983C7.48295 46.5114 7.26136 47.142 7.2358 47.875H2.67188C2.70597 46.4091 3.12784 45.1222 3.9375 44.0142C4.75568 42.8977 5.84659 42.0284 7.21023 41.4062C8.57386 40.7756 10.1037 40.4602 11.7997 40.4602C13.5469 40.4602 15.0639 40.7884 16.3509 41.4446C17.6463 42.0923 18.6477 42.9659 19.3551 44.0653C20.0625 45.1648 20.4162 46.3793 20.4162 47.7088C20.4247 49.1832 19.9901 50.419 19.1122 51.4162C18.2429 52.4134 17.1009 53.0653 15.6861 53.3722V53.5767C17.527 53.8324 18.9375 54.5142 19.9176 55.6222C20.9063 56.7216 21.3963 58.0895 21.3878 59.7259C21.3878 61.1918 20.9702 62.5043 20.1349 63.6634C19.3082 64.8139 18.1662 65.7173 16.7088 66.3736C15.2599 67.0298 13.598 67.358 11.723 67.358ZM24.2316 67V40.8182H28.9745V51.902H41.1066V40.8182H45.8623V67H41.1066V55.8778H28.9745V67H24.2316ZM52.5829 67H47.5204L56.7377 40.8182H62.5928L71.8229 67H66.7604L59.7675 46.1875H59.563L52.5829 67ZM52.7491 56.7344H66.5559V60.544H52.7491V56.7344ZM78.2143 40.8182V67H73.4714V40.8182H78.2143ZM83.8777 52.3878V56.1974H75.632V52.3878H83.8777ZM106.454 53.9091C106.454 56.7301 105.926 59.1463 104.869 61.1577C103.821 63.1605 102.389 64.6946 100.574 65.7599C98.7669 66.8253 96.7172 67.358 94.4246 67.358C92.132 67.358 90.078 66.8253 88.2626 65.7599C86.4558 64.6861 85.024 63.1477 83.9672 61.1449C82.9189 59.1335 82.3947 56.7216 82.3947 53.9091C82.3947 51.0881 82.9189 48.6761 83.9672 46.6733C85.024 44.6619 86.4558 43.1236 88.2626 42.0582C90.078 40.9929 92.132 40.4602 94.4246 40.4602C96.7172 40.4602 98.7669 40.9929 100.574 42.0582C102.389 43.1236 103.821 44.6619 104.869 46.6733C105.926 48.6761 106.454 51.0881 106.454 53.9091ZM101.686 53.9091C101.686 51.9233 101.375 50.2486 100.753 48.8849C100.139 47.5128 99.2868 46.4773 98.1959 45.7784C97.105 45.071 95.8479 44.7173 94.4246 44.7173C93.0013 44.7173 91.7442 45.071 90.6533 45.7784C89.5624 46.4773 88.7058 47.5128 88.0837 48.8849C87.47 50.2486 87.1632 51.9233 87.1632 53.9091C87.1632 55.8949 87.47 57.5739 88.0837 58.946C88.7058 60.3097 89.5624 61.3452 90.6533 62.0526C91.7442 62.7514 93.0013 63.1009 94.4246 63.1009C95.8479 63.1009 97.105 62.7514 98.1959 62.0526C99.2868 61.3452 100.139 60.3097 100.753 58.946C101.375 57.5739 101.686 55.8949 101.686 53.9091Z" fill="url(#paint0_linear_1_24)"/>
<path d="M134.756 40.8182V67H131.585V43.6307H118.392V67H115.222V40.8182H134.756ZM139.351 67V40.8182H155.152V43.6307H142.521V51.8125H149.169C151.044 51.8125 152.625 52.1193 153.912 52.733C155.207 53.3466 156.188 54.2116 156.852 55.3281C157.526 56.4446 157.862 57.7614 157.862 59.2784C157.862 60.7955 157.526 62.1335 156.852 63.2926C156.188 64.4517 155.207 65.3594 153.912 66.0156C152.625 66.6719 151.044 67 149.169 67H139.351ZM142.521 64.2386H149.169C150.362 64.2386 151.372 64 152.199 63.5227C153.034 63.0369 153.665 62.4148 154.091 61.6562C154.526 60.8892 154.743 60.0795 154.743 59.2273C154.743 57.9744 154.261 56.8963 153.298 55.9929C152.335 55.081 150.959 54.625 149.169 54.625H142.521V64.2386Z" fill="url(#paint1_linear_1_24)"/>
<path fill-rule="evenodd" clip-rule="evenodd" d="M209.786 0.973008C202.415 5.17894 195.216 12.7306 189.632 22.1157C187.364 25.928 186.405 27.8674 184.923 31.6344C182.359 38.1531 180.989 44.8003 181 50.6619C181.012 56.6449 182.33 60.618 185.291 63.587C187.885 66.189 190.629 67.1842 194.625 66.9724C201.387 66.6141 208.902 62.7569 215.648 56.1807C219.699 52.2323 222.883 47.9109 224.898 43.6255C225.356 42.6505 225.713 41.8398 225.691 41.8236C225.669 41.8074 219.742 41.7386 212.52 41.6702L199.39 41.5463L199.383 42.6951C199.379 43.3272 199.285 45.4006 199.173 47.3029C199.01 50.0996 198.867 51.0395 198.425 52.2141C197.477 54.7371 196.084 56.6081 194.149 57.9562C193.093 58.6926 193.118 58.7082 192.133 56.72C188.496 49.3777 189.628 40.3162 195.454 30.1288C200.022 22.1417 208.033 13.2001 214.81 8.52464L216 7.7037L216.875 8.28422C222.51 12.0189 229.436 23.3453 231.833 32.7444C232.806 36.5578 233.075 38.6779 233.075 42.5253C233.075 46.9885 232.816 48.9727 231.854 51.8716C229.989 57.4963 226.836 61.7113 221.773 65.3485L219.667 66.8612L221.219 66.7153C229.891 65.9006 236.855 63.3465 240.908 59.4949C244.949 55.6546 246.716 51.8562 246.972 46.4569C247.276 40.0458 245.089 32.0085 240.681 23.3411C235.519 13.189 228.886 5.28905 222.095 1.20544L220.091 0L215.779 0.00688187L211.468 0.0135418L209.786 0.973008Z" fill="url(#paint2_linear_1_24)"/>
<defs>
<linearGradient id="paint0_linear_1_24" x1="54.5" y1="32" x2="54.5" y2="76" gradientUnits="userSpaceOnUse">
<stop stop-color="#7A8DFF"/>
<stop offset="1" stop-color="#7655FF"/>
</linearGradient>
<linearGradient id="paint1_linear_1_24" x1="136" y1="32" x2="136" y2="76" gradientUnits="userSpaceOnUse">
<stop stop-color="#7CA4FF"/>
<stop offset="1" stop-color="#7A83FF"/>
</linearGradient>
<linearGradient id="paint2_linear_1_24" x1="214" y1="0" x2="273.46" y2="115.932" gradientUnits="userSpaceOnUse">
<stop stop-color="#7336FE"/>
<stop offset="1" stop-color="#FFDEDF"/>
</linearGradient>
</defs>
</svg>
