<svg width="40" height="40" viewBox="0 0 40 40" fill="none" xmlns="http://www.w3.org/2000/svg">
<path d="M19.9996 36.667C21.8329 36.667 23.3329 35.167 23.3329 33.3337H16.6663C16.6663 35.167 18.1496 36.667 19.9996 36.667ZM29.9996 26.667V18.3337C29.9996 13.217 27.2663 8.93366 22.4996 7.80033V6.66699C22.4996 5.28366 21.3829 4.16699 19.9996 4.16699C18.6163 4.16699 17.4996 5.28366 17.4996 6.66699V7.80033C12.7163 8.93366 9.9996 13.2003 9.9996 18.3337V26.667L7.8496 28.817C6.7996 29.867 7.53293 31.667 9.01626 31.667H30.9663C32.4496 31.667 33.1996 29.867 32.1496 28.817L29.9996 26.667Z" fill="black"/>
<circle cx="26.5" cy="11.5" r="4.5" fill="#FF4E54"/>
</svg>
