<svg width="84" height="84" viewBox="0 0 84 84" fill="none" xmlns="http://www.w3.org/2000/svg">
<path d="M46.4202 20.6873C45.9835 20.3004 45.4198 20.0878 44.8364 20.0899L44.8339 20.0901L44.6794 20.0954L26.4101 20.7015L26.0534 20.713C25.5507 20.7388 25.0541 20.835 24.5781 20.9987C23.7424 21.2765 22.9831 21.7457 22.3609 22.369C21.7416 22.9889 21.2725 23.7424 20.9894 24.5717C20.8562 24.9716 20.7657 25.3866 20.7262 25.8013L20.6979 26.6534V26.6759L20.104 44.5738L20.0928 44.9375L20.093 44.951C20.1178 45.4912 20.3259 46.0069 20.6832 46.413C20.7172 46.4537 20.7532 46.492 20.7907 46.5295L57.5593 83.2981C58.4939 84.2329 60.0117 84.2329 60.9463 83.2983L83.2987 60.9456C84.2336 60.011 84.2331 58.4935 83.2985 57.5591L46.5294 20.79C46.4943 20.7544 46.4578 20.7201 46.4202 20.6873ZM35.884 35.8835C33.984 37.7835 30.9052 37.7825 29.0055 35.8823C27.1062 33.9836 27.1055 30.905 29.0055 29.005C30.9054 27.1051 33.9837 27.1061 35.883 29.0048C37.7827 30.905 37.7842 33.9838 35.884 35.8835Z" fill="#FFBE55"/>
<path d="M47.6196 36.8082L72.2234 61.4121C73.199 62.3877 73.1988 63.9715 72.2234 64.9471C71.2478 65.9227 69.6641 65.9227 68.6882 64.9471L44.0846 40.3434C43.109 39.3678 43.109 37.784 44.0846 36.8082C44.3165 36.5759 44.5919 36.3916 44.8952 36.266C45.1985 36.1404 45.5236 36.0759 45.8518 36.0763C46.4917 36.0768 47.1316 36.3205 47.6196 36.8082ZM40.3449 44.0839L57.2989 61.0379C58.2745 62.0135 58.2742 63.5973 57.2989 64.5731C56.3233 65.5485 54.7395 65.5487 53.7636 64.5731L36.8096 47.6191C35.8343 46.6437 35.8343 45.0597 36.8096 44.0839C37.0416 43.8515 37.3172 43.6673 37.6205 43.5417C37.9239 43.4162 38.2491 43.3518 38.5774 43.3522C38.9057 43.3518 39.2308 43.4162 39.5341 43.5418C39.8374 43.6674 40.1129 43.8516 40.3449 44.0839Z" fill="#F7F7F7"/>
<circle cx="5.5" cy="5.5" r="5.5" fill="white"/>
<path d="M32.308 61.7251L32.2905 62.2943C32.2811 62.1044 32.2869 61.914 32.308 61.7251Z" fill="white"/>
<path d="M9.8596 6.83516L32.9835 29.9588C33.9226 30.8981 34.0703 32.3307 33.4266 33.426C32.9883 33.6834 32.4889 33.8185 31.9806 33.8172C31.6053 33.8187 31.2334 33.7456 30.8865 33.6022C30.5396 33.4589 30.2247 33.2481 29.9599 32.9821L6.83629 9.85846C5.89593 8.9181 5.74895 7.48456 6.39361 6.39047C6.83125 6.13258 7.33042 5.99768 7.83839 6.00003C8.21383 5.99831 8.58587 6.07126 8.93286 6.21463C9.27985 6.358 9.59487 6.56893 9.8596 6.83516Z" fill="#D3D3D3"/>
</svg>
