<svg width="415" height="330" viewBox="0 0 415 330" fill="none" xmlns="http://www.w3.org/2000/svg">
<path d="M357.296 324.681H311.816C311.02 324.681 310.257 324.365 309.695 323.802C309.132 323.24 308.816 322.477 308.816 321.681C308.816 320.885 309.132 320.122 309.695 319.56C310.257 318.997 311.02 318.681 311.816 318.681H357.296C358.092 318.681 358.855 318.997 359.417 319.56C359.98 320.122 360.296 320.885 360.296 321.681C360.296 322.477 359.98 323.24 359.417 323.802C358.855 324.365 358.092 324.681 357.296 324.681ZM100.906 126.201C100.906 126.201 99.466 120.081 116.386 114.681C133.306 109.281 142.666 102.801 144.466 95.241C144.466 95.241 148.426 114.681 155.626 118.281C155.626 118.281 164.626 90.201 143.746 80.121C122.866 70.041 99.106 84.441 89.386 103.161C79.666 121.881 81.466 125.481 71.386 137.001C64.846 144.475 17.746 170.481 54.466 198.921C54.466 198.921 80.386 161.121 94.786 164.001C94.786 164.001 99.771 142.351 99.078 139.856C98.408 137.44 84.714 127.066 89.243 116.442C89.4317 115.963 89.7129 115.525 90.0707 115.155C90.4284 114.785 90.8557 114.488 91.328 114.283C93.411 113.454 97.241 114.109 100.906 126.201Z" fill="black"/>
<path d="M113.975 193.575C109.015 193.576 102.576 183.941 94.325 164.193C94.2816 164.072 94.2863 163.939 94.3381 163.822C94.3899 163.705 94.4848 163.612 94.6033 163.562C94.7217 163.513 94.8546 163.511 94.9745 163.557C95.0943 163.603 95.1918 163.693 95.247 163.809C105.589 188.559 111.397 193.093 114.468 192.531C119.071 191.689 120.517 178.655 120.686 173.704C120.284 168.841 120.952 163.949 122.643 159.372C122.687 159.262 122.768 159.172 122.873 159.117C122.977 159.062 123.098 159.046 123.213 159.072C131.113 160.81 137.709 159.552 142.813 155.335C155.683 144.698 155.133 118.558 155.125 118.295C155.123 118.229 155.134 118.164 155.158 118.102C155.181 118.041 155.217 117.985 155.262 117.937C155.307 117.889 155.361 117.851 155.421 117.824C155.481 117.797 155.546 117.783 155.612 117.781C155.743 117.783 155.869 117.834 155.964 117.924C156.059 118.014 156.117 118.137 156.125 118.268C156.155 119.36 156.698 145.155 143.451 156.105C138.191 160.452 131.453 161.808 123.423 160.14C121.917 164.483 121.325 169.091 121.683 173.674C121.659 174.497 120.98 192.357 114.648 193.514C114.426 193.554 114.201 193.575 113.975 193.575Z" fill="black"/>
<path d="M138.673 139.002C137.571 138.988 136.489 138.704 135.523 138.173C134.557 137.643 133.736 136.883 133.132 135.961C133.062 135.851 133.038 135.718 133.064 135.591C133.091 135.464 133.166 135.352 133.274 135.279C133.382 135.206 133.514 135.178 133.642 135.201C133.77 135.223 133.884 135.295 133.96 135.401C134.752 136.613 135.971 137.481 137.375 137.833C137.865 137.985 138.381 138.038 138.892 137.988C139.403 137.938 139.898 137.787 140.35 137.543C140.76 137.216 141.101 136.811 141.352 136.35C141.604 135.89 141.761 135.385 141.815 134.863C142.05 133.453 141.888 132.004 141.346 130.681C141.117 129.953 140.914 129.217 140.738 128.474C140.179 126.041 139.414 122.711 140.765 119.526C141.237 118.341 141.961 117.273 142.886 116.396C143.812 115.518 144.916 114.851 146.124 114.442C147.852 113.952 149.694 114.041 151.367 114.695C151.491 114.743 151.59 114.838 151.643 114.96C151.697 115.081 151.7 115.219 151.651 115.343C151.603 115.466 151.508 115.566 151.387 115.619C151.265 115.672 151.128 115.675 151.004 115.627C149.537 115.052 147.923 114.972 146.407 115.401C145.341 115.768 144.368 116.362 143.553 117.141C142.738 117.92 142.102 118.866 141.687 119.914C140.461 122.803 141.184 125.951 141.713 128.249C141.9 129.064 142.114 129.769 142.303 130.389C142.898 131.87 143.069 133.487 142.796 135.059C142.719 135.711 142.512 136.342 142.186 136.912C141.861 137.483 141.423 137.982 140.9 138.379C140.235 138.802 139.461 139.018 138.673 139.002ZM136.666 116.883C136.582 116.883 136.499 116.862 136.425 116.821C136.351 116.781 136.289 116.722 136.244 116.651C132.605 110.951 123.619 114.413 123.529 114.447C123.468 114.473 123.402 114.486 123.335 114.486C123.269 114.486 123.203 114.472 123.142 114.446C123.08 114.421 123.025 114.383 122.978 114.335C122.932 114.288 122.895 114.231 122.871 114.169C122.847 114.107 122.835 114.041 122.836 113.975C122.838 113.908 122.852 113.843 122.879 113.782C122.907 113.721 122.946 113.667 122.994 113.621C123.043 113.576 123.1 113.54 123.162 113.517C123.26 113.477 133.01 109.727 137.087 116.114C137.135 116.19 137.162 116.277 137.165 116.366C137.168 116.456 137.147 116.545 137.104 116.623C137.061 116.702 136.998 116.767 136.921 116.813C136.844 116.859 136.756 116.883 136.666 116.883Z" fill="black"/>
<path d="M133.522 125.276C133.821 123.21 133.027 121.385 131.748 121.2C130.469 121.015 129.189 122.54 128.89 124.606C128.591 126.672 129.385 128.497 130.664 128.682C131.943 128.867 133.223 127.342 133.522 125.276Z" fill="black"/>
<path d="M150.552 127.741C150.851 125.675 150.057 123.85 148.778 123.665C147.499 123.48 146.219 125.005 145.92 127.071C145.621 129.137 146.415 130.962 147.694 131.147C148.973 131.332 150.253 129.807 150.552 127.741Z" fill="black"/>
<path d="M131.746 145.181L131.702 145.179C127.886 144.844 125.324 143.62 124.087 141.544C123.61 140.611 123.341 139.586 123.3 138.539C123.258 137.493 123.445 136.449 123.847 135.482C123.9 135.36 123.998 135.264 124.122 135.216C124.245 135.167 124.383 135.169 124.504 135.222C124.626 135.274 124.722 135.373 124.771 135.496C124.82 135.62 124.818 135.757 124.765 135.879C124.753 135.907 123.57 138.73 124.951 141.039C126.015 142.819 128.316 143.877 131.789 144.183C131.917 144.194 132.036 144.255 132.121 144.352C132.205 144.448 132.249 144.574 132.244 144.703C132.238 144.831 132.184 144.952 132.091 145.042C131.998 145.131 131.875 145.181 131.746 145.181ZM123.106 159.021C116.353 158.18 110.196 154.735 105.946 149.421C107.974 158.671 113.387 166.828 121.123 172.289C120.841 167.776 121.517 163.254 123.106 159.021Z" fill="black"/>
<path d="M96.335 252.862C87.772 252.862 80.739 252.822 78.912 252.7C78.6061 252.682 78.3092 252.59 78.0463 252.432C77.7835 252.275 77.5624 252.056 77.402 251.795C74.845 247.879 80.675 230.741 82.089 226.745C74.037 225.967 46.346 213.137 45.135 212.575C45.069 212.544 45.0105 212.499 44.9635 212.444C44.9166 212.388 44.8825 212.323 44.8634 212.252C44.8444 212.182 44.8409 212.109 44.8533 212.037C44.8656 211.965 44.8935 211.897 44.935 211.837L54.055 198.637C54.1327 198.534 54.2472 198.465 54.3746 198.444C54.502 198.424 54.6324 198.453 54.7385 198.527C54.8447 198.6 54.9184 198.711 54.9442 198.838C54.97 198.964 54.9459 199.096 54.877 199.205L46.095 211.916C50.204 213.805 76.517 225.781 82.785 225.781C82.8653 225.781 82.9443 225.8 83.0156 225.837C83.0868 225.874 83.148 225.928 83.1941 225.994C83.2402 226.06 83.2698 226.135 83.2804 226.215C83.291 226.295 83.2823 226.375 83.255 226.451C81.154 232.267 76.155 248.057 78.24 251.248C78.3153 251.379 78.4224 251.49 78.5516 251.569C78.6807 251.649 78.8276 251.694 78.979 251.702C84.1 252.042 132.234 251.729 136.276 251.703C137.734 249.496 149.531 231.366 147.594 225.805C145.462 219.685 144.014 215.938 143.999 215.901C143.957 215.791 143.954 215.671 143.992 215.559C144.03 215.448 144.106 215.354 144.206 215.293L151.765 210.712C150.459 207.496 140.775 185.012 120.86 172.715C120.747 172.645 120.666 172.533 120.636 172.404C120.605 172.275 120.627 172.139 120.697 172.026C120.767 171.913 120.879 171.832 121.008 171.802C121.137 171.771 121.273 171.793 121.386 171.863C143.058 185.246 152.758 210.491 152.853 210.745C152.894 210.854 152.896 210.974 152.858 211.085C152.82 211.195 152.745 211.288 152.645 211.349L145.082 215.932C146.277 219.098 147.429 222.28 148.538 225.477C150.754 231.839 137.525 251.641 136.961 252.48C136.916 252.548 136.854 252.603 136.782 252.642C136.711 252.68 136.63 252.7 136.549 252.701C135.144 252.711 112.884 252.862 96.335 252.862Z" fill="black"/>
<path d="M93.121 201.321L83.281 226.281L76.515 224.741L93.121 201.321ZM144.106 216.081L133.486 198.381L147.274 214.161L144.106 216.081Z" fill="black"/>
<path d="M194.153 308.032C190.891 308.032 187.687 305.858 186.627 305.065C186.118 305.608 185.491 306.027 184.795 306.289C184.098 306.551 183.351 306.65 182.61 306.578C178.228 306.036 174.264 299.006 171.64 294.354C171.034 293.208 170.363 292.097 169.631 291.027C168.741 289.884 166.21 291.313 163.005 293.125C158.902 295.443 153.265 298.622 147.257 298.421L145.284 298.358C101.334 296.991 26.737 293.328 20.924 284.148C14 273.218 47.183 215.98 48.599 213.548C48.6321 213.491 48.6761 213.442 48.7285 213.402C48.7808 213.362 48.8405 213.333 48.904 213.316C48.9676 213.3 49.0338 213.296 49.0989 213.305C49.164 213.314 49.2267 213.335 49.2835 213.368C49.3402 213.402 49.3898 213.446 49.4296 213.498C49.4693 213.55 49.4983 213.61 49.515 213.674C49.5317 213.737 49.5356 213.803 49.5267 213.868C49.5178 213.934 49.4961 213.996 49.463 214.053C49.119 214.643 15.167 273.191 21.768 283.613C25.834 290.033 70.865 295.043 145.315 297.358L147.29 297.421C153.027 297.597 158.29 294.641 162.513 292.255C166.279 290.125 168.999 288.585 170.42 290.414C171.185 291.521 171.884 292.673 172.511 293.864C175.036 298.34 178.851 305.105 182.733 305.586C183.396 305.638 184.061 305.526 184.67 305.259C185.279 304.992 185.812 304.579 186.223 304.056C186.31 303.964 186.429 303.909 186.555 303.901C186.681 303.893 186.806 303.934 186.903 304.015C186.953 304.055 191.873 308.037 195.813 306.785C197.828 306.141 199.284 304.205 200.143 301.03C200.164 300.952 200.204 300.881 200.259 300.822C200.314 300.763 200.382 300.718 200.458 300.691C200.534 300.664 200.616 300.656 200.696 300.667C200.776 300.678 200.851 300.709 200.917 300.756C200.97 300.793 206.182 304.489 209.929 302.866C211.978 301.974 213.259 299.617 213.739 295.86C214.212 291.77 213.599 287.628 211.962 283.85C209.921 279.005 205.669 270.207 200.132 265.73C200.037 265.652 199.973 265.542 199.954 265.421C199.935 265.3 199.961 265.176 200.027 265.072C200.094 264.969 200.196 264.894 200.314 264.861C200.432 264.828 200.559 264.84 200.669 264.894C201.289 265.204 215.925 272.552 222.029 278.297C225.18 281.265 228.287 281.416 229.966 280.247C231.859 278.93 232.165 276.052 230.765 272.735C227.384 264.727 206.905 248.839 203.486 248.005C203.395 247.983 203.312 247.935 203.247 247.868C203.181 247.801 203.136 247.716 203.117 247.625C203.097 247.533 203.103 247.438 203.135 247.349C203.167 247.261 203.223 247.184 203.297 247.126C203.372 247.067 210.802 241.234 211.834 235.729C212.514 232.098 212.066 229.295 210.604 228.039C209.401 227.006 207.492 226.937 204.93 227.833C201.763 228.941 198.5 231.145 195.344 233.275C191.365 235.961 187.252 238.738 183.081 239.552C178.337 240.478 173.518 241.041 170.001 241.453C167.954 241.693 166.338 241.882 165.252 242.073C158.922 243.19 143.487 246.45 136.886 252.568C136.789 252.658 136.659 252.706 136.527 252.701C136.394 252.696 136.269 252.638 136.179 252.541C136.089 252.444 136.041 252.314 136.046 252.182C136.051 252.049 136.109 251.924 136.206 251.834C143.002 245.536 158.661 242.222 165.078 241.089C166.193 240.892 167.822 240.701 169.884 240.46C173.386 240.05 178.183 239.488 182.89 238.57C186.861 237.795 190.889 235.076 194.784 232.446C197.993 230.28 201.311 228.04 204.6 226.89C207.524 225.865 209.763 225.998 211.255 227.28C213.022 228.797 213.576 231.863 212.817 235.913C211.896 240.826 206.517 245.737 204.589 247.363C209.972 249.874 228.399 264.56 231.686 272.347C233.592 276.861 232.342 279.812 230.536 281.067C228.525 282.466 224.903 282.375 221.343 279.025C217.04 274.975 208.115 269.96 203.361 267.423C207.522 271.975 210.768 278.44 212.884 283.462C214.589 287.402 215.226 291.722 214.731 295.987C214.204 300.119 212.721 302.742 210.325 303.783C206.813 305.311 202.472 302.936 200.915 301.954C199.936 305.089 198.324 307.034 196.115 307.738C195.48 307.937 194.818 308.036 194.153 308.032Z" fill="black"/>
<path d="M186.586 304.9C186.522 304.9 186.458 304.888 186.398 304.863C186.275 304.813 186.177 304.717 186.125 304.595C186.073 304.473 186.072 304.335 186.122 304.212C187.96 299.688 179.242 284.953 175.729 279.657C175.691 279.602 175.665 279.541 175.651 279.476C175.638 279.411 175.637 279.344 175.65 279.278C175.662 279.213 175.688 279.151 175.725 279.096C175.761 279.041 175.809 278.993 175.864 278.957C175.919 278.92 175.982 278.895 176.047 278.882C176.112 278.87 176.179 278.87 176.244 278.884C176.309 278.898 176.371 278.924 176.425 278.962C176.48 279 176.526 279.048 176.562 279.104C177.09 279.899 189.46 298.652 187.049 304.589C187.011 304.681 186.947 304.76 186.865 304.815C186.782 304.87 186.685 304.9 186.586 304.9ZM200.625 301.661C200.5 301.661 200.379 301.614 200.287 301.529C200.195 301.444 200.138 301.328 200.127 301.203C199.072 288.539 186.601 272.109 186.475 271.944C186.433 271.892 186.401 271.832 186.382 271.768C186.363 271.703 186.357 271.636 186.365 271.569C186.373 271.503 186.394 271.438 186.427 271.38C186.46 271.322 186.505 271.271 186.558 271.23C186.611 271.189 186.672 271.16 186.737 271.143C186.802 271.126 186.87 271.123 186.936 271.133C187.003 271.143 187.066 271.166 187.123 271.201C187.181 271.236 187.23 271.282 187.269 271.337C187.789 272.017 200.044 288.163 201.123 301.119C201.134 301.251 201.092 301.382 201.007 301.483C200.921 301.585 200.799 301.648 200.667 301.659C200.653 301.66 200.639 301.661 200.625 301.661ZM167.531 241.745C167.445 241.745 167.36 241.723 167.285 241.68C167.209 241.638 167.147 241.577 167.102 241.503L149.641 212.584C149.572 212.47 149.552 212.334 149.583 212.205C149.615 212.077 149.697 211.966 149.81 211.897C149.924 211.828 150.06 211.807 150.189 211.839C150.317 211.871 150.428 211.952 150.497 212.066L167.959 240.986C168.005 241.062 168.029 241.148 168.031 241.237C168.032 241.325 168.01 241.413 167.966 241.49C167.923 241.567 167.859 241.631 167.783 241.676C167.706 241.72 167.62 241.744 167.531 241.744V241.745ZM24.946 311.545C24.9011 311.545 24.8564 311.539 24.813 311.528C24.7496 311.511 24.6903 311.481 24.6384 311.441C24.5865 311.4 24.543 311.35 24.5105 311.293C24.478 311.236 24.4571 311.173 24.4489 311.108C24.4408 311.043 24.4456 310.976 24.463 310.913L30.71 288.244C30.7453 288.116 30.8299 288.008 30.9452 287.942C31.0606 287.877 31.1972 287.86 31.325 287.895C31.4528 287.93 31.5614 288.015 31.6269 288.13C31.6923 288.246 31.7093 288.382 31.674 288.51L25.428 311.179C25.3989 311.284 25.336 311.378 25.2489 311.444C25.1619 311.51 25.0554 311.545 24.946 311.545ZM147.273 311.545C147.14 311.545 147.013 311.492 146.919 311.399C146.826 311.305 146.773 311.178 146.773 311.045V297.921C146.773 297.788 146.826 297.661 146.919 297.567C147.013 297.474 147.14 297.421 147.273 297.421C147.406 297.421 147.533 297.474 147.627 297.567C147.72 297.661 147.773 297.788 147.773 297.921V311.046C147.773 311.179 147.72 311.306 147.627 311.4C147.533 311.493 147.406 311.545 147.273 311.545Z" fill="black"/>
<path d="M413.986 311.545H12.226C12.0934 311.545 11.9662 311.492 11.8725 311.399C11.7787 311.305 11.726 311.178 11.726 311.045C11.726 310.912 11.7787 310.785 11.8725 310.691C11.9662 310.598 12.0934 310.545 12.226 310.545H413.986C414.119 310.545 414.246 310.598 414.34 310.691C414.433 310.785 414.486 310.912 414.486 311.045C414.486 311.178 414.433 311.305 414.34 311.399C414.246 311.492 414.119 311.545 413.986 311.545Z" fill="black"/>
<path d="M385.159 294.921H252.386L272.386 198.921H404.326C404.623 198.921 404.917 198.987 405.185 199.115C405.454 199.243 405.69 199.429 405.878 199.659C406.065 199.89 406.199 200.159 406.269 200.448C406.34 200.737 406.345 201.038 406.284 201.329L387.117 293.329C387.023 293.779 386.777 294.183 386.421 294.473C386.064 294.763 385.619 294.921 385.159 294.921Z" fill="#7336FE"/>
<path d="M264.275 200.513L245.108 292.513C245.047 292.804 245.052 293.105 245.123 293.394C245.193 293.683 245.327 293.952 245.514 294.183C245.702 294.413 245.938 294.599 246.207 294.727C246.475 294.855 246.769 294.921 247.066 294.921H252.386L272.386 198.921H266.233C265.773 198.921 265.328 199.079 264.971 199.369C264.615 199.659 264.369 200.063 264.275 200.513Z" fill="black"/>
<path d="M368.294 324.681H336.546L316.546 267.081H349.683C350.099 267.081 350.504 267.21 350.843 267.451C351.181 267.692 351.437 268.032 351.573 268.425L370.183 322.025C370.288 322.326 370.319 322.648 370.274 322.964C370.228 323.28 370.108 323.58 369.923 323.84C369.739 324.1 369.494 324.312 369.211 324.458C368.927 324.605 368.613 324.681 368.294 324.681Z" fill="#A780FF"/>
<path d="M310.766 269.737L329.376 323.337C329.512 323.73 329.768 324.07 330.106 324.311C330.445 324.552 330.85 324.681 331.266 324.681H336.546L316.546 267.081H312.656C312.337 267.081 312.022 267.157 311.739 267.303C311.455 267.45 311.211 267.661 311.026 267.921C310.841 268.181 310.721 268.482 310.676 268.798C310.63 269.114 310.661 269.436 310.766 269.737Z" fill="black"/>
<path d="M332.226 242.361H326.946C324.428 242.361 322.386 244.403 322.386 246.921C322.386 249.439 324.428 251.481 326.946 251.481H332.226C334.744 251.481 336.786 249.439 336.786 246.921C336.786 244.403 334.744 242.361 332.226 242.361Z" fill="black"/>
<path d="M242.716 33.567H181.029C180.499 33.567 179.99 33.7777 179.615 34.1528C179.24 34.5279 179.029 35.0366 179.029 35.567V79.807C179.029 80.3375 179.24 80.8461 179.615 81.2212C179.99 81.5963 180.499 81.807 181.029 81.807H219.273L227.015 94.134C227.107 94.281 227.236 94.4014 227.389 94.4834C227.543 94.5654 227.714 94.6061 227.888 94.6015C228.061 94.597 228.231 94.5474 228.379 94.4575C228.528 94.3676 228.65 94.2406 228.735 94.089L235.593 81.807H242.716C243.246 81.807 243.755 81.5963 244.13 81.2212C244.505 80.8461 244.716 80.3375 244.716 79.807V35.567C244.716 35.0366 244.505 34.5279 244.13 34.1528C243.755 33.7777 243.246 33.567 242.716 33.567Z" fill="#086AD9"/>
<path d="M364.936 75.159H271.026C270.496 75.159 269.987 75.3697 269.612 75.7448C269.237 76.1199 269.026 76.6286 269.026 77.159V129.445C269.026 129.975 269.237 130.484 269.612 130.859C269.987 131.234 270.496 131.445 271.026 131.445H341.193L347.803 141.966C347.895 142.113 348.024 142.233 348.177 142.315C348.33 142.397 348.502 142.438 348.675 142.433C348.848 142.429 349.018 142.379 349.166 142.29C349.315 142.2 349.437 142.073 349.522 141.922L355.372 131.445H364.935C365.465 131.445 365.974 131.234 366.349 130.859C366.724 130.484 366.935 129.975 366.935 129.445V77.159C366.935 76.6286 366.724 76.1199 366.349 75.7448C365.974 75.3697 365.465 75.159 364.935 75.159H364.936Z" fill="#C1E5D9"/>
<path d="M196.753 61.602C200.613 61.602 200.62 55.602 196.753 55.602C192.892 55.602 192.886 61.602 196.753 61.602ZM211.873 61.602C215.733 61.602 215.74 55.602 211.873 55.602C208.012 55.602 208.006 61.602 211.873 61.602ZM226.993 61.602C230.853 61.602 230.86 55.602 226.993 55.602C223.132 55.602 223.126 61.602 226.993 61.602ZM354.153 95.602H319.593C319.328 95.602 319.073 95.4966 318.886 95.3091C318.698 95.1216 318.593 94.8672 318.593 94.602C318.593 94.3368 318.698 94.0824 318.886 93.8949C319.073 93.7073 319.328 93.602 319.593 93.602H354.153C354.418 93.602 354.673 93.7073 354.86 93.8949C355.048 94.0824 355.153 94.3368 355.153 94.602C355.153 94.8672 355.048 95.1216 354.86 95.3091C354.673 95.4966 354.418 95.602 354.153 95.602ZM354.153 104.719H319.593C319.328 104.719 319.073 104.614 318.886 104.426C318.698 104.239 318.593 103.984 318.593 103.719C318.593 103.454 318.698 103.199 318.886 103.012C319.073 102.824 319.328 102.719 319.593 102.719H354.153C354.418 102.719 354.673 102.824 354.86 103.012C355.048 103.199 355.153 103.454 355.153 103.719C355.153 103.984 355.048 104.239 354.86 104.426C354.673 104.614 354.418 104.719 354.153 104.719ZM354.153 113.835H319.593C319.328 113.835 319.073 113.73 318.886 113.542C318.698 113.355 318.593 113.1 318.593 112.835C318.593 112.57 318.698 112.315 318.886 112.128C319.073 111.94 319.328 111.835 319.593 111.835H354.153C354.418 111.835 354.673 111.94 354.86 112.128C355.048 112.315 355.153 112.57 355.153 112.835C355.153 113.1 355.048 113.355 354.86 113.542C354.673 113.73 354.418 113.835 354.153 113.835ZM308.473 118.639H282.233C281.438 118.638 280.675 118.322 280.113 117.759C279.55 117.197 279.234 116.434 279.233 115.639V91.799C279.234 91.0036 279.55 90.241 280.113 89.6785C280.675 89.1161 281.438 88.7998 282.233 88.799H308.473C309.268 88.7998 310.031 89.1161 310.593 89.6785C311.156 90.241 311.472 91.0036 311.473 91.799V115.639C311.472 116.434 311.156 117.197 310.593 117.759C310.031 118.322 309.268 118.638 308.473 118.639ZM282.233 90.799C281.968 90.7992 281.714 90.9047 281.526 91.0922C281.339 91.2796 281.233 91.5338 281.233 91.799V115.639C281.233 115.904 281.339 116.158 281.526 116.346C281.714 116.533 281.968 116.639 282.233 116.639H308.473C308.738 116.639 308.992 116.533 309.18 116.346C309.367 116.158 309.473 115.904 309.473 115.639V91.799C309.473 91.5338 309.367 91.2796 309.18 91.0922C308.992 90.9047 308.738 90.7992 308.473 90.799H282.233Z" fill="black"/>
<path d="M314.353 109.28H252.833C252.303 109.28 251.794 109.491 251.419 109.866C251.044 110.241 250.833 110.75 250.833 111.28V153.678C250.833 154.208 251.044 154.717 251.419 155.092C251.794 155.467 252.303 155.678 252.833 155.678H265.293L271.968 166.304C272.06 166.451 272.189 166.571 272.342 166.653C272.496 166.735 272.667 166.776 272.841 166.772C273.014 166.767 273.184 166.717 273.332 166.628C273.481 166.538 273.603 166.411 273.688 166.259L279.596 155.678H314.353C314.883 155.678 315.392 155.467 315.767 155.092C316.142 154.717 316.353 154.208 316.353 153.678V111.28C316.353 110.75 316.142 110.241 315.767 109.866C315.392 109.491 314.883 109.28 314.353 109.28Z" fill="#54CAFA"/>
<path d="M300.873 124.687H266.313C266.048 124.687 265.793 124.582 265.606 124.394C265.418 124.207 265.313 123.952 265.313 123.687C265.313 123.422 265.418 123.167 265.606 122.98C265.793 122.792 266.048 122.687 266.313 122.687H300.873C301.138 122.687 301.393 122.792 301.58 122.98C301.768 123.167 301.873 123.422 301.873 123.687C301.873 123.952 301.768 124.207 301.58 124.394C301.393 124.582 301.138 124.687 300.873 124.687ZM300.873 133.803H266.313C266.048 133.803 265.793 133.698 265.606 133.51C265.418 133.323 265.313 133.068 265.313 132.803C265.313 132.538 265.418 132.283 265.606 132.096C265.793 131.908 266.048 131.803 266.313 131.803H300.873C301.138 131.803 301.393 131.908 301.58 132.096C301.768 132.283 301.873 132.538 301.873 132.803C301.873 133.068 301.768 133.323 301.58 133.51C301.393 133.698 301.138 133.803 300.873 133.803ZM300.873 142.92H266.313C266.048 142.92 265.793 142.815 265.606 142.627C265.418 142.44 265.313 142.185 265.313 141.92C265.313 141.655 265.418 141.4 265.606 141.213C265.793 141.025 266.048 140.92 266.313 140.92H300.873C301.138 140.92 301.393 141.025 301.58 141.213C301.768 141.4 301.873 141.655 301.873 141.92C301.873 142.185 301.768 142.44 301.58 142.627C301.393 142.815 301.138 142.92 300.873 142.92Z" fill="black"/>
<path d="M0 248.279H56.137V254.683H0V248.279Z" fill="#FED44A"/>
<path d="M354.153 175.958H410.29V182.362H354.153V175.958Z" fill="#674CFB"/>
<path d="M56.75 55.4H112.887V61.804H56.75V55.4Z" fill="#7DB1FF"/>
<path d="M300.873 38.159C299.965 38.159 299.077 37.8897 298.322 37.3851C297.567 36.8805 296.978 36.1633 296.631 35.3243C296.283 34.4852 296.192 33.5619 296.369 32.6711C296.546 31.7804 296.984 30.9622 297.626 30.3199C298.268 29.6777 299.086 29.2404 299.977 29.0632C300.868 28.886 301.791 28.977 302.63 29.3245C303.469 29.6721 304.187 30.2607 304.691 31.0158C305.196 31.771 305.465 32.6588 305.465 33.567C305.464 34.7844 304.979 35.9517 304.119 36.8126C303.258 37.6734 302.09 38.1577 300.873 38.159ZM300.873 29.975C300.163 29.975 299.468 30.1856 298.877 30.5803C298.287 30.975 297.826 31.536 297.554 32.1924C297.283 32.8487 297.211 33.571 297.35 34.2677C297.489 34.9645 297.831 35.6046 298.333 36.1069C298.835 36.6093 299.475 36.9514 300.172 37.09C300.869 37.2286 301.591 37.1574 302.248 36.8856C302.904 36.6137 303.465 36.1533 303.86 35.5626C304.254 34.9719 304.465 34.2774 304.465 33.567C304.464 32.6147 304.085 31.7019 303.411 31.0285C302.738 30.3552 301.825 29.9763 300.873 29.975ZM176.145 165.447C175.237 165.447 174.349 165.177 173.594 164.673C172.839 164.168 172.251 163.451 171.903 162.612C171.556 161.773 171.465 160.85 171.642 159.959C171.819 159.068 172.257 158.25 172.899 157.608C173.541 156.966 174.359 156.528 175.25 156.351C176.141 156.174 177.064 156.265 177.903 156.612C178.742 156.96 179.459 157.548 179.964 158.303C180.468 159.058 180.738 159.946 180.738 160.854C180.737 162.072 180.252 163.239 179.391 164.1C178.53 164.961 177.363 165.446 176.145 165.447ZM176.145 157.263C175.435 157.263 174.74 157.474 174.15 157.869C173.559 158.264 173.099 158.825 172.827 159.481C172.555 160.138 172.484 160.86 172.623 161.557C172.762 162.253 173.104 162.893 173.607 163.396C174.109 163.898 174.749 164.24 175.446 164.378C176.143 164.517 176.865 164.445 177.522 164.173C178.178 163.901 178.739 163.441 179.133 162.85C179.528 162.259 179.738 161.564 179.738 160.854C179.737 159.902 179.358 158.989 178.684 158.316C178.01 157.642 177.097 157.264 176.145 157.263Z" fill="black"/>
<path d="M385.881 148.841L378.561 146.841L383.881 140.521L385.881 148.841Z" fill="#FD6F41"/>
<path d="M24.109 191.916L16.789 189.916L22.109 183.596L24.109 191.916ZM235.8 8.32L228.48 6.32L233.8 0L235.8 8.32Z" fill="#FED44A"/>
<path d="M88.478 85.125L81.158 83.125L86.478 76.805L88.478 85.125Z" fill="#674CFB"/>
<path d="M216.766 329.25L209.446 327.25L214.766 320.93L216.766 329.25Z" fill="#2CA68F"/>
</svg>
