<svg width="247" height="76" viewBox="0 0 247 76" fill="none" xmlns="http://www.w3.org/2000/svg">
<path d="M11.723 67.358C9.8821 67.358 8.24574 67.0426 6.81392 66.4119C5.39063 65.7812 4.26563 64.9034 3.43892 63.7784C2.61222 62.6534 2.1733 61.3537 2.12216 59.8793H6.92898C6.97159 60.5866 7.20597 61.2045 7.6321 61.733C8.05824 62.2528 8.625 62.6577 9.33239 62.9474C10.0398 63.2372 10.8324 63.3821 11.7102 63.3821C12.6477 63.3821 13.4787 63.2202 14.2031 62.8963C14.9276 62.5639 15.4943 62.1037 15.9034 61.5156C16.3125 60.9276 16.5128 60.25 16.5043 59.483C16.5128 58.6903 16.3082 57.9915 15.8906 57.3864C15.473 56.7812 14.8679 56.3082 14.0753 55.9673C13.2912 55.6264 12.3452 55.456 11.2372 55.456H8.9233V51.7997H11.2372C12.1491 51.7997 12.946 51.642 13.6278 51.3267C14.3182 51.0114 14.8594 50.5682 15.2514 49.9972C15.6435 49.4176 15.8352 48.7486 15.8267 47.9901C15.8352 47.2486 15.669 46.6051 15.3281 46.0597C14.9957 45.5057 14.5227 45.0753 13.9091 44.7685C13.304 44.4616 12.5923 44.3082 11.7741 44.3082C10.973 44.3082 10.2315 44.4531 9.54972 44.7429C8.8679 45.0327 8.31818 45.446 7.90057 45.983C7.48295 46.5114 7.26136 47.142 7.2358 47.875H2.67188C2.70597 46.4091 3.12784 45.1222 3.9375 44.0142C4.75568 42.8977 5.84659 42.0284 7.21023 41.4062C8.57386 40.7756 10.1037 40.4602 11.7997 40.4602C13.5469 40.4602 15.0639 40.7884 16.3509 41.4446C17.6463 42.0923 18.6477 42.9659 19.3551 44.0653C20.0625 45.1648 20.4162 46.3793 20.4162 47.7088C20.4247 49.1832 19.9901 50.419 19.1122 51.4162C18.2429 52.4134 17.1009 53.0653 15.6861 53.3722V53.5767C17.527 53.8324 18.9375 54.5142 19.9176 55.6222C20.9063 56.7216 21.3963 58.0895 21.3878 59.7259C21.3878 61.1918 20.9702 62.5043 20.1349 63.6634C19.3082 64.8139 18.1662 65.7173 16.7088 66.3736C15.2599 67.0298 13.598 67.358 11.723 67.358ZM24.2316 67V40.8182H28.9745V51.902H41.1066V40.8182H45.8623V67H41.1066V55.8778H28.9745V67H24.2316ZM52.5829 67H47.5204L56.7377 40.8182H62.5928L71.8229 67H66.7604L59.7675 46.1875H59.563L52.5829 67ZM52.7491 56.7344H66.5559V60.544H52.7491V56.7344ZM78.2143 40.8182V67H73.4714V40.8182H78.2143ZM83.8777 52.3878V56.1974H75.632V52.3878H83.8777ZM106.454 53.9091C106.454 56.7301 105.926 59.1463 104.869 61.1577C103.821 63.1605 102.389 64.6946 100.574 65.7599C98.7669 66.8253 96.7172 67.358 94.4246 67.358C92.132 67.358 90.078 66.8253 88.2626 65.7599C86.4558 64.6861 85.024 63.1477 83.9672 61.1449C82.9189 59.1335 82.3947 56.7216 82.3947 53.9091C82.3947 51.0881 82.9189 48.6761 83.9672 46.6733C85.024 44.6619 86.4558 43.1236 88.2626 42.0582C90.078 40.9929 92.132 40.4602 94.4246 40.4602C96.7172 40.4602 98.7669 40.9929 100.574 42.0582C102.389 43.1236 103.821 44.6619 104.869 46.6733C105.926 48.6761 106.454 51.0881 106.454 53.9091ZM101.686 53.9091C101.686 51.9233 101.375 50.2486 100.753 48.8849C100.139 47.5128 99.2868 46.4773 98.1959 45.7784C97.105 45.071 95.8479 44.7173 94.4246 44.7173C93.0013 44.7173 91.7442 45.071 90.6533 45.7784C89.5624 46.4773 88.7058 47.5128 88.0837 48.8849C87.47 50.2486 87.1632 51.9233 87.1632 53.9091C87.1632 55.8949 87.47 57.5739 88.0837 58.946C88.7058 60.3097 89.5624 61.3452 90.6533 62.0526C91.7442 62.7514 93.0013 63.1009 94.4246 63.1009C95.8479 63.1009 97.105 62.7514 98.1959 62.0526C99.2868 61.3452 100.139 60.3097 100.753 58.946C101.375 57.5739 101.686 55.8949 101.686 53.9091Z" fill="url(#paint0_linear_1_25)"/>
<path d="M134.756 40.8182V67H131.585V43.6307H118.392V67H115.222V40.8182H134.756ZM139.351 67V40.8182H155.152V43.6307H142.521V51.8125H149.169C151.044 51.8125 152.625 52.1193 153.912 52.733C155.207 53.3466 156.188 54.2116 156.852 55.3281C157.526 56.4446 157.862 57.7614 157.862 59.2784C157.862 60.7955 157.526 62.1335 156.852 63.2926C156.188 64.4517 155.207 65.3594 153.912 66.0156C152.625 66.6719 151.044 67 149.169 67H139.351ZM142.521 64.2386H149.169C150.362 64.2386 151.372 64 152.199 63.5227C153.034 63.0369 153.665 62.4148 154.091 61.6562C154.526 60.8892 154.743 60.0795 154.743 59.2273C154.743 57.9744 154.261 56.8963 153.298 55.9929C152.335 55.081 150.959 54.625 149.169 54.625H142.521V64.2386Z" fill="url(#paint1_linear_1_25)"/>
<path fill-rule="evenodd" clip-rule="evenodd" d="M209.786 0.973008C202.415 5.17894 195.216 12.7306 189.632 22.1157C187.364 25.928 186.405 27.8674 184.923 31.6344C182.359 38.1531 180.989 44.8003 181 50.6619C181.012 56.6449 182.33 60.618 185.291 63.587C187.885 66.189 190.629 67.1842 194.625 66.9724C201.387 66.6141 208.902 62.7569 215.648 56.1807C219.699 52.2323 222.883 47.9109 224.898 43.6255C225.356 42.6505 225.713 41.8398 225.691 41.8236C225.669 41.8074 219.742 41.7386 212.52 41.6702L199.39 41.5463L199.383 42.6951C199.379 43.3272 199.285 45.4006 199.173 47.3029C199.01 50.0996 198.867 51.0395 198.425 52.2141C197.477 54.7371 196.084 56.6081 194.149 57.9562C193.093 58.6926 193.118 58.7082 192.133 56.72C188.496 49.3777 189.628 40.3162 195.454 30.1288C200.022 22.1417 208.033 13.2001 214.81 8.52464L216 7.7037L216.875 8.28422C222.51 12.0189 229.436 23.3453 231.833 32.7444C232.806 36.5578 233.075 38.6779 233.075 42.5253C233.075 46.9885 232.816 48.9727 231.854 51.8716C229.989 57.4963 226.836 61.7113 221.773 65.3485L219.667 66.8612L221.219 66.7153C229.891 65.9006 236.855 63.3465 240.908 59.4949C244.949 55.6546 246.716 51.8562 246.972 46.4569C247.276 40.0458 245.089 32.0085 240.681 23.3411C235.519 13.189 228.886 5.28905 222.095 1.20544L220.091 0L215.779 0.00688187L211.468 0.0135418L209.786 0.973008Z" fill="url(#paint2_linear_1_25)"/>
<defs>
<linearGradient id="paint0_linear_1_25" x1="54.5" y1="32" x2="54.5" y2="76" gradientUnits="userSpaceOnUse">
<stop stop-color="#7A8DFF"/>
<stop offset="1" stop-color="#7655FF"/>
</linearGradient>
<linearGradient id="paint1_linear_1_25" x1="136" y1="32" x2="136" y2="76" gradientUnits="userSpaceOnUse">
<stop stop-color="#7CA4FF"/>
<stop offset="1" stop-color="#7A83FF"/>
</linearGradient>
<linearGradient id="paint2_linear_1_25" x1="214" y1="0" x2="273.46" y2="115.932" gradientUnits="userSpaceOnUse">
<stop stop-color="#7336FE"/>
<stop offset="1" stop-color="#FFDEDF"/>
</linearGradient>
</defs>
</svg>
