<svg width="32" height="32" viewBox="0 0 32 32" fill="none" xmlns="http://www.w3.org/2000/svg">
<path fill-rule="evenodd" clip-rule="evenodd" d="M13.9569 0.46472C10.3829 2.47352 6.8927 6.08028 4.18541 10.5627C3.08566 12.3835 2.6204 13.3098 1.9021 15.109C0.659021 18.2224 -0.0054463 21.3972 3.36241e-05 24.1967C0.005621 27.0543 0.645053 28.9519 2.08026 30.3699C3.33806 31.6126 4.6685 32.088 6.60603 31.9868C9.88474 31.8157 13.528 29.9734 16.7991 26.8326C18.7632 24.9468 20.3068 22.8828 21.2838 20.8361C21.5062 20.3704 21.6793 19.9832 21.6685 19.9754C21.6578 19.9677 18.7841 19.9348 15.2826 19.9022L8.91619 19.843L8.91286 20.3917C8.91093 20.6936 8.86526 21.6839 8.81132 22.5924C8.73202 23.9282 8.66261 24.3771 8.44857 24.9381C7.9889 26.1431 7.31337 27.0367 6.37533 27.6806C5.86312 28.0323 5.87537 28.0397 5.39797 27.0901C3.63462 23.5834 4.18336 19.2555 7.0081 14.3899C9.22275 10.5751 13.1068 6.30452 16.3926 4.07147L16.9696 3.67938L17.3942 3.95664C20.1259 5.74035 23.484 11.15 24.6464 15.6391C25.118 17.4605 25.2485 18.473 25.2485 20.3106C25.2485 22.4423 25.1229 23.39 24.6567 24.7745C23.7521 27.4609 22.2233 29.4741 19.7686 31.2112L18.7478 31.9337L19.5 31.864C23.7046 31.4749 27.0814 30.2551 29.0464 28.4155C31.0057 26.5813 31.8621 24.7672 31.9865 22.1884C32.134 19.1264 31.0735 15.2876 28.9364 11.148C26.4333 6.29922 23.2173 2.52611 19.925 0.575731L18.9534 0L16.8627 0.00328686L14.7722 0.0064677L13.9569 0.46472Z" fill="url(#paint0_linear_75_3)"/>
<defs>
<linearGradient id="paint0_linear_75_3" x1="16" y1="-4.61884e-07" x2="31.634" y2="25.5375" gradientUnits="userSpaceOnUse">
<stop stop-color="#1D6FF2"/>
<stop offset="1" stop-color="#ADD7EA"/>
</linearGradient>
</defs>
</svg>